<svg xmlns="http://www.w3.org/2000/svg" width="98" height="37" viewBox="0 0 9.21814 3.48835" shape-rendering="geometricPrecision" text-rendering="geometricPrecision" image-rendering="optimizeQuality" fill-rule="evenodd" clip-rule="evenodd"><defs><style type="text/css">.fil0 {fill:#0A0B0C}</style></defs><path class="fil0" d="M2.06 1.154c2.454-2.12 5.2-.91 6.48.356.303.177.387.3.497.44.122.018.14.05.146.064.108.565-.022.906-.538.902-.04-1.622-2.088-1.25-1.873.11H2.67c.1-1.322-1.866-1.73-1.93 0-.878-.028-.747-.44-.713-.83.256.01.284-.952 2.034-1.042zm5.652.866c.424 0 .767.33.767.734 0 .406-.344.734-.768.734-.424 0-.768-.328-.768-.734 0-.405.344-.734.768-.734zm-5.99 0c.424 0 .768.33.768.734 0 .406-.344.734-.768.734-.424 0-.768-.328-.768-.734 0-.405.344-.734.768-.734zM5.352.264c-.695-.097-1.635-.02-2.326.56v.412c.775 0 1.55-.03 2.326-.03V.264zm.33.057c.324.034 1.192.314 1.54.876h-1.51c0-.29-.03-.584-.03-.875z" id="Layer_x0020_1"/></svg>