<svg xmlns="http://www.w3.org/2000/svg" version="1" width="100" height="100" viewBox="0 0 100 100"><path d="M99.894 60.338c-.058-.17-.648-.084-.648-.084l.45-7.993c-1.043-2.853-2.627-20.885-3.26-23.172-.637-2.288-52.714-1.737-55.03-1.737s-31.773.706-33.327.876c-1.554.17-5.366 1.158-5.366 1.158C.074 41.57.566 57.344.566 57.344l-.55.043c-.127 2.754.594 3.518.594 3.518s.55.21 1.27.21c.722 0 4.11 1.694 4.11 1.694l.382 3.56h13.343c.03-4.844 3.165-9.663 9.41-9.663s9.382 4.82 9.412 9.662h35.366c-.023-4.885 3.11-9.788 9.41-9.788 6.273 0 9.41 4.86 9.414 9.724 7.263-.62 7.22-5.81 7.167-5.968zm-82.382 2.6H7.854v-26.91h9.658v26.91zM36.66 43.85c0 1.118-.916 2.034-2.034 2.034H21.324c-1.12 0-2.034-.916-2.034-2.034V33.306c0-1.12.915-2.035 2.034-2.035h13.302c1.118 0 2.033.917 2.033 2.036V43.85zm18.3 0c0 1.118-.915 2.034-2.034 2.034h-13.3c-1.12 0-2.035-.916-2.035-2.034V33.306c0-1.12.916-2.035 2.035-2.035h13.3c1.12 0 2.034.917 2.034 2.036V43.85zM68.54 62.938h-10.81V35.145h10.81v27.793zm7.26-19.088c0 1.118-.914 2.034-2.032 2.034H72.5c-1.12 0-2.033-.916-2.033-2.034V33.306c0-1.12.914-2.035 2.032-2.035h1.27c1.118 0 2.033.917 2.033 2.036V43.85zm18.302 0c0 1.118-.864 2.034-1.92 2.034H78.655c-1.06 0-1.92-.916-1.92-2.034V33.306c0-1.12.86-2.035 1.92-2.035h13.526c1.057 0 1.92.917 1.92 2.036V43.85zm2.287-12.377l1.98 16.438c-4.295-1.328-1.98-16.437-1.98-16.437z"/><circle cx="83.25" cy="65.938" r="7.456"/><circle cx="29.026" cy="65.938" r="7.457"/></svg>