<svg xmlns="http://www.w3.org/2000/svg" width="100" height="100" viewBox="0 0 100 100"><circle cx="51.017" cy="59.042" r="3.386"/><path d="M11.58 59.506c-3.635 0-6.58 2.947-6.58 6.582 0 3.633 2.945 6.58 6.58 6.58 3.634 0 6.58-2.947 6.58-6.58 0-3.635-2.946-6.582-6.58-6.582zm0 10.476c-2.152 0-3.896-1.744-3.896-3.895 0-2.152 1.744-3.896 3.896-3.896 2.15 0 3.896 1.745 3.896 3.897 0 2.15-1.745 3.895-3.896 3.895zM82.005 59.04c-3.635 0-6.58 2.948-6.58 6.58 0 3.636 2.945 6.583 6.58 6.583 3.634 0 6.58-2.947 6.58-6.582 0-3.632-2.946-6.58-6.58-6.58zm0 10.478c-2.152 0-3.896-1.744-3.896-3.896 0-2.15 1.743-3.895 3.895-3.895 2.15 0 3.896 1.744 3.896 3.895 0 2.15-1.744 3.896-3.895 3.896zM64.102 55.268c-1.638-5.688-6.87-9.852-13.085-9.852S39.57 49.58 37.933 55.268h-3.117l.542-10.57-4.026-6.04h-13.34V27.332h-3.02v6.795h-2.265v4.53H7.172l-2.014 6.04 1.996 14.59c1.276-.873 2.82-1.387 4.482-1.387 3.595 0 6.628 2.393 7.605 5.672h18.94c1.867 5.295 6.902 9.096 12.837 9.096s10.97-3.8 12.84-9.096h10.432c.977-3.28 4.01-5.672 7.606-5.672 3.595 0 6.628 2.393 7.605 5.672H95v-8.305H64.102zm-13.085 13.41c-5.322 0-9.636-4.314-9.636-9.637 0-5.32 4.314-9.633 9.637-9.633 5.32 0 9.635 4.314 9.635 9.634 0 5.323-4.314 9.638-9.635 9.638z"/></svg>