<svg version="1" xmlns="http://www.w3.org/2000/svg" width="100" height="51.086" viewBox="0 0 100 51.086"><circle cx="13.955" cy="42.837" r="8.249"/><circle cx="76.521" cy="42.837" r="8.249"/><path d="M32.363 0H100v32.322H32.363zM70.126 34.587H28.073V8L6.438 9.645S1.693 21.392 0 25.53v15.222c0 1.152.933 2.085 2.083 2.085h1.432c0-5.767 4.675-10.44 10.44-10.44 5.767 0 10.44 4.674 10.44 10.44H66.08c0-3.357 1.586-6.34 4.046-8.25zM19.733 23.68L3.08 25.776l4.81-12.49 11.844-.904v11.3zM99.944 34.587H82.917c2.46 1.91 4.045 4.894 4.045 8.25h6.757l6.245-2.21-.02-6.04z"/></svg>