<svg xmlns="http://www.w3.org/2000/svg" width="100" height="100" viewBox="0 0 100 100"><circle cx="9.191" cy="74.355" r="7.914"/><circle cx="86.007" cy="74.355" r="7.914"/><path d="M74.688 15.65c-25 0-48.013.4-50.79 4.367-2.78 3.967-11.626 17.06-11.37 26.385v7.343s-7.967.06-6.884 6.575c0 0 17.062 2.903 16.27 14.037h52.375s2.8-11.09 11.717-11.09 11.297 6.54 11.297 6.54V31.753S99.687 15.65 74.688 15.65zM27.863 51.085H14.77c-.826-12.92 10.39-27.497 10.39-27.497h2.703v27.497zm51.304 2.94c-3.06 0-3.29 3.29-3.29 3.29L70.72 69.39c-12.27 2.35-12.7-2.948-12.7-2.948V57.43c.056-.233.092-.476.092-.723V41.812c0-1.773-1.44-3.21-3.212-3.21-1.773 0-3.212 1.438-3.212 3.21v10.224c-.19.49-.304.99-.352 1.458h-7.013c-1.774 0-3.21 1.438-3.21 3.213 0 1.77 1.437 3.21 3.21 3.21h7.13v9.892h-18.43V23.983h46.144v30.04z"/></svg>