<svg xmlns="http://www.w3.org/2000/svg" xmlns:xlink="http://www.w3.org/1999/xlink" version="1.1" id="Capa_1" x="0px" y="0px" width="100px" height="100px" viewBox="0 0 100 100" enable-background="new 0 0 100 100" xml:space="preserve">
<g id="Capa_2">
</g>
<g>
	<circle cx="51.017" cy="59.042" r="3.386"/>
	<path d="M11.58,59.506c-3.635,0-6.58,2.947-6.58,6.582c0,3.633,2.945,6.58,6.58,6.58c3.634,0,6.581-2.947,6.581-6.58   C18.161,62.453,15.214,59.506,11.58,59.506z M11.58,69.982c-2.152,0-3.896-1.744-3.896-3.895c0-2.152,1.744-3.896,3.896-3.896   c2.151,0,3.896,1.744,3.896,3.896C15.476,68.238,13.731,69.982,11.58,69.982z"/>
	<path d="M82.005,59.041c-3.635,0-6.58,2.947-6.58,6.58c0,3.635,2.945,6.582,6.58,6.582c3.634,0,6.581-2.947,6.581-6.582   C88.586,61.988,85.639,59.041,82.005,59.041z M82.005,69.518c-2.152,0-3.896-1.744-3.896-3.896c0-2.15,1.744-3.895,3.896-3.895   c2.151,0,3.896,1.744,3.896,3.895C85.9,67.773,84.156,69.518,82.005,69.518z"/>
	<path d="M64.102,55.268c-1.638-5.688-6.871-9.852-13.085-9.852S39.57,49.58,37.933,55.268h-3.117l0.542-10.571l-4.026-6.039H17.993   v-2.643v-1.888v-6.795h-3.021v6.795h-2.265v4.53H7.172l-2.014,6.039l1.996,14.592C8.43,58.414,9.973,57.9,11.636,57.9   c3.595,0,6.628,2.393,7.605,5.672h18.938c1.868,5.295,6.903,9.096,12.838,9.096s10.97-3.801,12.839-9.096h10.433   c0.978-3.279,4.011-5.672,7.607-5.672c3.595,0,6.628,2.393,7.605,5.672H95v-8.305H64.102z M51.017,68.678   c-5.322,0-9.636-4.314-9.636-9.637c0-5.32,4.313-9.634,9.636-9.634c5.321,0,9.635,4.314,9.635,9.634   C60.651,64.363,56.338,68.678,51.017,68.678z"/>
</g>
</svg>