<?xml version="1.0" encoding="utf-8"?>
<!-- Generator: Adobe Illustrator 16.0.0, SVG Export Plug-In . SVG Version: 6.00 Build 0)  -->
<!DOCTYPE svg PUBLIC "-//W3C//DTD SVG 1.1//EN" "http://www.w3.org/Graphics/SVG/1.1/DTD/svg11.dtd">
<svg version="1.1" id="Layer_1" xmlns="http://www.w3.org/2000/svg" xmlns:xlink="http://www.w3.org/1999/xlink" x="0px" y="0px"
	 width="807px" height="155px" viewBox="0 0 807 155" enable-background="new 0 0 807 155" xml:space="preserve">
<g>
	<g>
		<g>
			<g>
				<g>
					<path fill="#F8F7F9" d="M566.465,42.529c0.772,0.403,0.677-0.104,0.828-0.116C565.932,41.875,566.45,42.643,566.465,42.529z"/>
					<path fill="#F8F7F9" d="M553.064,37.286l0.299-0.048c0,0-0.514-0.145-1.05-0.239c-0.53-0.105-1.061-0.21-1.061-0.21
						s0.454,0.12,0.909,0.24C552.62,37.141,553.064,37.286,553.064,37.286z"/>
					<path fill="#F8F7F9" d="M540.674,32.163c0.909,1.146,4.535,1.739,6.649,2.883l0.302,0.3l1.22-0.12
						C546.119,34.205,542.491,33.125,540.674,32.163z"/>
					<path fill="#F8F7F9" d="M534.504,28.222c0.322,0.41-1.546-0.296,1.548,0.643c-0.143-0.083-0.181-0.115-0.262-0.167
						C535.516,28.604,535.139,28.469,534.504,28.222z"/>
					<path fill="#F8F7F9" d="M535.79,28.697C537.135,29.154,534.996,28.167,535.79,28.697L535.79,28.697z"/>
					<path fill="#F8F7F9" d="M529.564,26.651l1.843,0.392c-0.313-0.286-1.871-0.878-1.248-0.784
						C528.306,25.745,528.626,26.032,529.564,26.651z"/>
					<path fill="#F8F7F9" d="M527.729,26.552l0.944,0.224C528.536,26.654,528.302,26.546,527.729,26.552z"/>
					<path fill="#F8F7F9" d="M530.678,27.254l-2.005-0.478c0.218,0.2,0.168,0.428,0.913,0.24
						C529.358,27.159,529.807,27.103,530.678,27.254z"/>
					<path fill="#F8F7F9" d="M531.735,27.746c0.936,0.497,2.174,1.042,0.328,0.647C535.455,29.495,535.135,28.848,531.735,27.746z"
						/>
					<path fill="#F8F7F9" d="M539.773,32.591l1.211,0.724l1.201,0.235C541.586,33.432,539.775,32.35,539.773,32.591z"/>
					<path fill="#F8F7F9" d="M518.607,22.708c-0.155,0.111,0.483,0.569,0.56,0.795l1.37,0.234
						C519.891,23.432,518.633,22.95,518.607,22.708z"/>
					<path fill="#F8F7F9" d="M519.167,23.503l-2.049-0.349C518.87,23.718,519.229,23.697,519.167,23.503z"/>
					<polygon fill="#F8F7F9" points="527.161,27.191 530.524,27.805 526.545,26.979 					"/>
					<path fill="#F8F7F9" d="M511.061,20.398l1.217,0.001c0,0-0.536-0.023-1.071-0.047c-0.54-0.003-1.08-0.007-1.08-0.007
						L511.061,20.398z"/>
					<path fill="#F8F7F9" d="M505.974,19.166c0.914-0.067-1.028-0.77-0.095-0.717c-1.394-0.301-2.634-0.359-3.747-0.411
						C503.288,18.203,504.482,18.54,505.974,19.166z"/>
					<path fill="#F8F7F9" d="M500.276,17.903c0.577,0.075,1.189,0.102,1.855,0.134C501.518,17.951,500.906,17.895,500.276,17.903z"
						/>
					<path fill="#F8F7F9" d="M513.779,22.062c-0.127-0.134-0.354-0.455-1.435-0.888l0.659,0.646
						C513.24,21.895,513.508,21.978,513.779,22.062z"/>
					<path fill="#F8F7F9" d="M513.027,21.842l-0.023-0.021c-0.839-0.267-1.42-0.452-1.67-0.532
						C511.548,21.359,512.058,21.525,513.027,21.842z"/>
					<path fill="#F8F7F9" d="M513.975,22.124c-0.072-0.022-0.125-0.039-0.195-0.061C513.842,22.125,513.883,22.153,513.975,22.124z"
						/>
					<path fill="#F8F7F9" d="M522.16,25.141c-1.231-0.125-3.714-0.61-1.493,0.445C521.584,25.559,520.311,24.955,522.16,25.141z"/>
					<path fill="#F8F7F9" d="M514.787,22.929l2.063,0.728c-0.008-0.12-0.339-0.393,0.27-0.332L514.787,22.929z"/>
					<polygon fill="#F8F7F9" points="513.726,22.748 514.787,22.929 514.022,22.659 					"/>
					<path fill="#F8F7F9" d="M503.816,19.217c-0.962-0.053-1.968-0.293-3.107-0.552c1.193,0.391,2.437,0.754,3.627,1.056
						C504.537,19.634,505.121,19.534,503.816,19.217z"/>
					<path fill="#F8F7F9" d="M508.298,20.481c-0.066-0.009-0.149-0.02-0.211-0.028C508.203,20.52,508.301,20.557,508.298,20.481z"/>
					<path fill="#F8F7F9" d="M489.497,16.131c0.056,0.039,0.107,0.074,0.165,0.114c0.019-0.021,0.033-0.043,0.057-0.063
						L489.497,16.131z"/>
					<path fill="#F8F7F9" d="M504.521,19.85c0.89,0.312,1.461,0.35,2.014,0.354c-0.692-0.132-1.422-0.29-2.198-0.483
						C504.246,19.761,504.222,19.796,504.521,19.85z"/>
					<path fill="#F8F7F9" d="M497.115,17.305c0.455,0.208,0.978,0.419,1.527,0.631C498.21,17.686,497.309,17.239,497.115,17.305z"/>
					<path fill="#F8F7F9" d="M507.811,20.261c0.047,0.005,0.091,0.01,0.142,0.016C507.677,20.112,507.702,20.165,507.811,20.261z"/>
					<path fill="#F8F7F9" d="M507.811,20.261c-0.485-0.061-0.882-0.053-1.276-0.056c0.563,0.109,1.091,0.196,1.553,0.249
						C507.982,20.395,507.881,20.322,507.811,20.261z"/>
					<path fill="#F8F7F9" d="M485.553,18.108c0.236-0.355,2.718-0.21,4.706,0.64c2.104,0.137,1.05-1.415-0.597-2.503
						c-0.1,0.156-0.134,0.312-2.293,0.099c0.698,0.367,4.579,1.475,2.726,1.454c-2.832-0.384-2.258-0.616-3.575-1.105
						c1.055,0.725-3.69-0.039-3.218,0.801l2.489,0.26C485.814,17.874,484.895,17.865,485.553,18.108z"/>
					<path fill="#F8F7F9" d="M493.685,17.128l0.881,0.134c-0.978-0.275-1.653-0.578-2.897-1.155
						c-1.492-0.115-1.822-0.034-1.949,0.075l4.275,0.951L493.685,17.128z"/>
					<path fill="#F8F7F9" d="M498.457,18.158c-0.773,0.244-2.882-0.094-1.721,0.677c2.529,0.613,1.851,0.1,3.403,0.302
						c-4.103-0.935,1.229,0.065-1.662-0.923c0.819,0.133,1.546,0.295,2.231,0.451c-0.723-0.238-1.416-0.482-2.066-0.729
						c0.034,0.02,0.059,0.034,0.088,0.05l0.02,0.003l-0.006,0.005c0.164,0.097,0.214,0.144,0.022,0.063
						c-0.015,0.001-0.064-0.009-0.087-0.013c-0.042,0.051-0.129,0.083-0.223,0.111c-1.162-0.388-0.16-0.156,0.223-0.111
						c0.019-0.017,0.055-0.029,0.064-0.05l-0.014-0.009c0,0-1.037-0.203-2.074-0.406c-1.045-0.159-2.091-0.318-2.091-0.318
						C495.426,17.509,496.528,17.693,498.457,18.158z"/>
					<path fill="#F8F7F9" d="M518.248,25.82c-0.113-0.074-0.099-0.102-0.099-0.134C517.874,25.657,517.766,25.662,518.248,25.82z"/>
					<path fill="#F8F7F9" d="M516.673,25.07c0.31,0.031,0.603-0.06,1.539,0.271c0.786,0.374-0.064,0.196-0.062,0.345
						c0.604,0.064,2.094,0.312,0.36-0.433l-0.302-0.03c-1.573-0.632-3.504-1.78-3.204-1.751
						C515.367,23.987,515.706,24.379,516.673,25.07z"/>
					<path fill="#F8F7F9" d="M507.486,21.552l-3.448-0.66l1.634,0.801l-0.031-0.239C507.547,22.03,507.201,21.657,507.486,21.552z"
						/>
					<polygon fill="#F8F7F9" points="489.147,15.839 489.697,15.489 487.578,15.702 					"/>
					<polygon fill="#F8F7F9" points="484.664,14.957 484.905,14.603 483.678,14.59 					"/>
					<path fill="#F8F7F9" d="M230.699,30.383l-0.965,0.349C230.194,30.584,230.487,30.475,230.699,30.383z"/>
					<path fill="#F8F7F9" d="M237.892,28.668l0.131-0.232C237.715,28.622,237.597,28.731,237.892,28.668z"/>
					<path fill="#F8F7F9" d="M373.181,7.725c-1.508-0.325-3.2-0.849-3.005-0.409l0.473,0.42
						C371.693,7.627,372.496,7.651,373.181,7.725z"/>
					<path fill="#F8F7F9" d="M297.181,15.537c0.146,0.025,0.299,0.051,0.451,0.077c0.341-0.193,0.661-0.375,0.949-0.538
						C298.159,15.214,297.682,15.372,297.181,15.537z"/>
					<path fill="#F8F7F9" d="M296.366,17.449l-1.984-0.033C294.833,17.458,295.472,17.471,296.366,17.449z"/>
					<path fill="#F8F7F9" d="M192.054,42.023l-0.993,0.79C192.829,42.232,191.981,42.275,192.054,42.023z"/>
					<path fill="#F8F7F9" d="M438.334,8.978c-1.281-0.25-2.306-0.385-3.208-0.462C436.667,8.861,437.895,9.312,438.334,8.978z"/>
					<path fill="#F8F7F9" d="M232.431,25.226c-0.594,0.225-0.834,0.374-0.793,0.463C232.25,25.465,232.587,25.298,232.431,25.226z"
						/>
					<path fill="#F8F7F9" d="M431.39,8.285c0.226,0.058,0.447,0.093,0.678,0.145c0.949-0.014,1.905-0.013,3.059,0.086
						C433.988,8.259,432.676,8.063,431.39,8.285z"/>
					<path fill="#F8F7F9" d="M62.167,107.605c-0.097,0.048-0.205,0.117-0.296,0.157C61.881,107.828,62.001,107.742,62.167,107.605z"
						/>
					<path fill="#F8F7F9" d="M27.172,132.592c0.281-0.318,0.772-0.809,1.231-1.273C28.156,131.521,27.78,131.901,27.172,132.592z"/>
					<path fill="#F8F7F9" d="M466.575,11.704C467.54,11.799,466.734,11.676,466.575,11.704L466.575,11.704z"/>
					<path fill="#F8F7F9" d="M470.967,14.119c-0.21,0.014-0.373,0.05-0.412,0.145C470.648,14.173,470.791,14.13,470.967,14.119z"/>
					<path fill="#F8F7F9" d="M421.657,10.46c-0.028-0.001-0.051-0.002-0.083-0.004C421.856,10.55,421.808,10.533,421.657,10.46z"/>
					<path fill="#F8F7F9" d="M467.992,12.085c-0.353-0.099-0.762-0.196-1.21-0.286C466.977,11.858,467.344,11.948,467.992,12.085z"
						/>
					<path fill="#F8F7F9" d="M467.827,11.857c0.329,0.057,0.586,0.12,0.831,0.171C468.789,11.981,468.69,11.903,467.827,11.857z"/>
					<path fill="#F8F7F9" d="M465.233,11.554c0.551,0.064,1.061,0.15,1.549,0.245c-0.185-0.053-0.26-0.088-0.207-0.096
						C466.293,11.672,465.895,11.628,465.233,11.554z"/>
					<path fill="#F8F7F9" d="M128.445,65.939c-0.063,0.016-0.134,0.034-0.203,0.052C127.449,66.573,127.819,66.363,128.445,65.939z"
						/>
					<path fill="#F8F7F9" d="M348.336,13.221c0.044-0.011,0.069-0.017,0.109-0.027c-0.045-0.002-0.102-0.005-0.143-0.007
						L348.336,13.221z"/>
					<path fill="#F8F7F9" d="M344.907,13.735c1.439-0.621,2.277-0.601,3.395-0.549L347.098,12L344.907,13.735z"/>
					<path fill="#F8F7F9" d="M213.631,35.084l2.429-0.284c-2.63,1.413-4.714,1.773-2.386,1.683c-0.022-0.7,2.225-1.373,4.471-2.045
						c2.248-0.668,4.513-1.268,4.499-1.975l1.614-0.128c-0.445,0.103-0.495,0.199-0.935,0.3c3.159-0.157,1.977-1.534,5.89-2.362
						c1.375-0.241,2.369-0.268,1.485,0.109l2.933-1.056c0.883-0.187,0.725,0.094-0.154,0.28l4.571-1.219l-0.025,0.047
						c0.607-0.362,2.016-1.057,2.716-1.35c1.218-0.071-0.557,0.271-0.218,0.37l2.485-0.889c1.12,0.112-0.924,0.915-2.701,1.26
						c2.689,0.789,2.046-0.805,7.37-1.178l-2.374,0.704c1.721,0.409,3.54-0.289,6.365-0.414c-0.697-0.113-5.71,0.026-3.011-0.923
						c0.806-0.066,1.84-0.271,3.288-0.838c0.113,0.47,1.555,0.057,3.385-0.342l0.003,0.652c1.945-0.583,1.724-0.87,2.835-1.389
						c2.225-0.386,2.778,0.007,3.377,0.312c3.566-0.571-2.603-0.326,1.578-1.227c3.002-0.301,5.027-0.938,8.5-1.963
						c2.109-0.157-0.295,0.449,0.479,0.496l1.752-0.811c0.453-0.062,0.333,0.117,0.273,0.207c1.518-0.449,0.02-0.651,2.433-1.223
						c0.549-0.789,5.168,0.162,8.073-1.056c0.773,0.072-0.302,0.44-0.037,0.651c4.075-1.12,3.502-0.892,6.818-2.085
						c0,0,0.742-0.001,1.483-0.002c0.742,0.009,1.484,0.018,1.484,0.018c-2.206-0.208,0.454-1.114,2.799-1.879
						c-0.791-0.134-1.468-0.254-1.918-0.295l3.797-0.822c0.477,0.046,0.116,0.312-0.479,0.656c0.254-0.089,0.495-0.174,0.684-0.24
						c1.401,0.062,0.734,0.518-0.204,0.996c-0.482-0.074-0.962-0.147-1.43-0.218c-0.898,0.504-1.728,1.042-1.482,1.389
						c0.239-0.104,0.709-0.228,1.232-0.329c-0.234,0.136-0.38,0.249-0.257,0.298c0.139,0.05,0.52-0.14,1.125-0.38l0.958,0.598
						l0.176-0.308c0,0,1.264-0.046,2.528-0.092c1.263-0.052,2.527-0.079,2.527-0.079c3.504-1.069,6.512-2.53,12.208-3.321
						c-1.371,0.644-0.227,0.877-0.248,1.5c-1.621-0.538-4.39,0.693-7.352,0.879c1.547-0.095,1.239,0.235,0.858,0.379
						c0,0,1.3-0.288,2.6-0.576c1.299-0.298,2.604-0.554,2.604-0.554c-0.072,0.515,1.155,0.281,2.549,0.371
						c-1.13-0.907,3.872-1.004,5.994-1.497c0.159,0.324-0.329,0.71-2.951,0.856c2.944,0.494,3.639-1.5,6.531-1.041
						c-0.64,0.051-0.989,0.022-1.229,0.21c1.474-0.398,5.15-0.406,4.308-0.056l-0.638,0.05c4.248-0.201,12.964-0.75,13.553-1.647
						c0.048,0.107-0.504,1.055-0.752,1.241l7.46-3.275c-0.633,0.765,2.025,2.371-1.488,2.964c1.02,0.041,2.281,0.113,4.407-0.24
						c-0.697-0.073-1.776-0.979-0.833-1.087c2.637,0.698,1.825,0.355,5.057,0.906c-1.044-0.111,0.058-1.306,1.701-1.342
						c-0.249,0.183,0.185,1.124-0.41,1.269l4.036-1.304c-1.011,0.248-0.142,0.96,0.783,1.238c-0.432-0.215,3.528-0.122,4.612-0.251
						l-1.739-0.209c4.613,0.034,4.501-1.715,9.084-1.792c-0.548,0.249-1.329,1.47,1,1.542c1.049-0.617,4.656-2.917,8.716-3.383
						l0.783,0.32l3.112-0.412c-1.937,0.901-7.342,2.75-10.282,3.546c1.729,0.216,0.488,0.356,3.069,0.296
						c0.917,0.302-1.397,0.474-2.155,0.521l6.007,0.119c-0.277-0.669,4.585-0.728,4.352-1.285l-6.519,0.773
						c-0.278-0.668,3.748-1.952,8.019-1.883c1.086,0.255-0.804,1.207-0.713,1.429c0.551-0.237,4.041-0.491,4.433-0.327l-1.806,0.378
						c2.37,0.206,3.869-0.876,6.716-0.221c0.984,0.052,2.927,0.894,3.101,0.497c-1.593-0.782-1.892-3.158-0.812-3.724
						c0.347,0.055,5.178,0.783,6.294,1.173c1.61,0.617-2.462,1.41-1.09,1.94c0.062-0.183,0.962-0.401,1.336-0.47
						c1.03,0.176-0.438,0.543,1.807,0.524c0.39-0.669,4.561,0.214,1.073-0.54c2.201-0.12,2.33,0.22,4.907,0.278
						c-0.807-0.468,2.368-1.418,4.584-1.537c-0.137,0.168,0.349,0.411,0.584,0.522c2.254,0.088,3.979,0.288,5.666,0.486
						c1.687,0.191,3.334,0.373,5.432,0.506c0.376,0.189,2.386,0.514,1.504,0.753c0.611-0.083,1.181-0.279,2.476-0.215
						c2.458,0.743-2.889-0.088-1.032,0.737c0.189-0.377,3.383-0.366,5.237-0.404c-0.258-0.325-1.316-0.476-2.546-0.481
						c-1.23,0.001-2.628,0.1-3.558,0.166c0.046-0.814,3.332-1.599,7.754-1.526c3.508,0.119,1.464,0.685,2.08,0.622
						c3.268,0.381,4.697,0.145,5.987-0.046c1.288-0.178,2.443-0.379,5.121,0.298c2.09,0.811-0.028,1.075,0.404,1.521
						c-2.845-0.188-4.306-0.842-6.233-1.003l2.341,0.475c-0.922,0.093-2.827,0.051-3.843-0.201c0.439,0.163,1.349,0.314,2.543,0.465
						c1.194,0.146,2.675,0.29,4.248,0.522c3.149,0.424,6.703,0.896,9.182,1.44c0.917-0.064,2.484-0.05,1.786-0.358l-1.601-0.13
						c-1.403-0.618,3.079-0.208,1.092-0.667c2.185-0.067,4.639-0.09,7.599,0.642l0.464,0.7c-0.035-0.188-1.898-0.688-2.769-0.645
						c1.293-0.059,4.451,1.586,5.952,1.023l-2.028-0.77c2.186,0.056,4.949-0.149,7.574,0.497c-1.099-0.808-0.624-0.037-2.39-1.053
						c1.484,1.142-6.808-1.177-4.329,0.177c-1.805-1.135-3.3-0.905-5.731-2.023c0.048,0.213,0.841,0.533-1.381,0.061
						c-0.109,0.042-0.359,0.076-0.517,0.094c-0.067-0.017-0.092-0.022-0.149-0.037c0.043,0.015,0.076,0.026,0.12,0.041
						c-0.102,0.016-0.11,0.019,0.045,0.016c0.52,0.176,0.935,0.354,1.093,0.495c-1.171,0.224-4.743-0.184-5.979-0.122
						c-1.317-0.267,0.588-0.158-0.109-0.466l-1.85,0.124c-0.118-0.468-3.445-1.196-0.271-1.052l-2.825-0.384
						c-1.636-0.452-3.914-0.887-5.353-0.825c-1.329-0.222-3.433,0.177-2.23-0.063l-4.476-0.141l-0.03-0.115
						c-2.192-0.234-4.467-0.261-6.81-0.388c-2.348-0.068-4.764-0.211-7.251-0.775c-1.488,0.021-3.024,0.064-5.494-0.217
						l-0.463-0.418c-1.906-0.019-5.698-0.609-6.532-0.252c-1.006-0.558-3.316-0.693-5.791-0.728
						c-1.237-0.005-2.516-0.01-3.693-0.015c-1.178,0.006-2.255,0.024-3.091-0.034l-0.135,0.506
						c-2.303-0.051-4.514,0.072-7.373,0.248l0.173,0.45c-1.232,0.172-2.813,0.078-4.575-0.059c-1.761-0.11-3.701-0.24-5.648-0.197
						c0.263-0.174,1.251-0.141,1.951-0.046c-4.664-0.938-9.806,0.807-14.031,0.207c-1.046,0.194-1.808,0.161-2.547,0.07
						c0.098-0.004,0.185-0.015,0.259-0.031c-0.107,0.002-0.267,0.004-0.431,0.007c-0.466-0.063-0.946-0.139-1.465-0.195
						c0.442,0.096,0.866,0.173,1.233,0.204c-0.81,0.033-2.037,0.125-3.237,0.273l-0.528-0.466c-0.098,0.007-0.176,0.014-0.278,0.022
						c-1.188-0.143-0.942,0.256-0.301,0.599c-0.604,0.097-1.156,0.208-1.583,0.337c-0.986-0.744-3.148,0.345-4.488-0.425
						c-0.795,0.439-6.036,0.571-6.639,1.449c-0.046-0.109-0.402-0.146,0.246-0.181c-1.344-0.038-2.688-0.076-3.879,0.217
						l-0.598-0.587l-2.887,0.952c-1.796-0.292-2.542-0.456-0.803-1.026c-4.223,0.958-3.442,0.464-7.025,1.382l0.155-0.405
						c-1.293,0.087-3.333,0.731-4.132,0.448c-1.468-0.297-5.051-0.132-9.21,0.142c-2.079,0.124-4.3,0.257-6.467,0.386
						c-2.167,0.138-4.284,0.23-6.16,0.217c1.55,1.042-3.508-0.236-3.715,0.719c-0.458-0.228-1.51-0.273-0.33-0.64
						c-3.762,0.672-5.745,0.17-8.278,1.205c-0.465-0.229,0.766-0.488,0.361-0.609c-0.297,0.093-1.178,0.363-1.591,0.248
						c-0.404-0.118,0.528-0.297,1.116-0.476c-3.868,0.495-4.152,1.414-4.337,2.232c-2-0.129-2.972,0.046-4.314,0.742
						c-0.714-0.173-1.886-0.301,0.5-0.695c-1.358,0.092-8.283,0.747-8.328,1.404c-0.445-0.099-1.887,0.225-2.23,0.35
						c-3.024,0.392-3.298,0.379-6.242,0.929l0.835-0.031c-1.045,0.953-2.427,0.572-4.793,1.054l0.055-0.089
						c-5.554,0.349-2.312,0.638-7.794,0.986l0.377,0.418c-0.312,1.116-4.869,0.251-7.907,1.253l1.173,0.042
						c-1.625,0.689-5.01-0.417-6.746-0.196c-0.39-0.013,0.558-0.26,1.064-0.431c-4.592,0.31-0.454,0.733-3.751,1.55
						c-0.683-0.208,0.615-1.004-1.64-0.611c-1.174-0.022-6.238,2.513-9.423,2.554c0.729,0.105,1.452,0.212-0.042,0.745
						c-2.332,0.617-6.58,0.565-8.509,1.87c-0.315,0.003-0.445-0.036-0.473-0.096c-1.751,0.617-5.737,1.801-6.697,2.523
						c-1.032-0.585-3.761,0.339-6.267,1.222c-2.502,0.904-4.771,1.812-4.96,1.065l-5.443,1.627l0.099-0.19
						c-3.519,0.91-4.632,1.673-5.749,2.384c-0.833,0.145-0.288-0.17-0.245-0.267c-5.163,1.254-5.664,1.447-9.649,3.567l-0.592-0.328
						c-1.052,0.647-7.549,1.617-12.261,3.931c0.029-0.07,0.099-0.196,0.466-0.399c-5.347,2.414-13.659,3.532-15.037,5.95
						c0,0-0.868,0.435-1.721,0.904c-0.856,0.461-1.712,0.922-1.712,0.922c4.688-1.719-0.405,1.005,1.611,0.524
						c-1.781,0.824-4.909,1.372-2.704,0.392l0.384-0.056c0.478-1.204-5.886,1.988-6.003,1.345
						c-9.066,3.803-18.074,7.158-26.397,11.153l1.272,0.199l-2.914,1.356c-0.834,0.212-1.271-0.023,0.81-0.992
						c-1.269,0.151-3.316,1.982-3.304,2.152c-4.175,1.69,1.202-1.53-0.044-0.944l-1.664,0.862l0.418-0.107
						c-1.228,0.94-1.199,1.299-3.67,2.52c-1.619,0.665-1.002,0.006-1.626,0.294c-0.02-0.048-0.238,0.036-0.948,0.462l-3.639,1.794
						l1.711-0.228c-1.473,1.058-3.387,1.739-1.435,1.437c-1.443,0.2-4.801,1.936-8.005,3.676c-1.609,0.856-3.155,1.759-4.394,2.493
						c-1.245,0.723-2.196,1.254-2.6,1.397c-1.954,1.645-4.138,2.818-6.763,4.422c0.713-0.3,1.436,0.017-0.856,1.34
						c0.124-1.652-4.432,2.054-6.774,2.368c1.941-0.522-6.223,4.283-3.214,3.387c-1.907,1.126-0.387-0.346-1.964,0.315
						c-1.03,0.834-2.163,1.632-3.366,2.419c-1.201,0.793-2.437,1.629-3.73,2.449c-1.288,0.831-2.609,1.684-3.951,2.549
						c-0.662,0.446-1.329,0.896-1.999,1.349c-0.65,0.481-1.297,0.974-1.937,1.481c0.023,0.202,1.055-0.235,0.093,0.813l-3.281,1.362
						c-0.98,0.844-0.334,1.521-2.587,2.448c0.356-0.083,0.888-0.203,0.232,0.359c-2.657,1.779-5.188,3.788-7.729,5.812
						c-1.28,1.001-2.505,2.077-3.725,3.164c-1.223,1.082-2.448,2.167-3.675,3.253c-2.492,2.127-4.83,4.434-7.312,6.572
						c-2.502,2.119-4.938,4.299-7.525,6.313c1.489-1.003,0.68-0.149-0.262,0.809c0.676-0.56,0.294,0.32,0.585,0.366
						c0,0-1.08,0.843-2.16,1.686c-1.097,0.827-2.123,1.73-2.122,1.73c-0.194,1.182-3.936,4.306-3.855,5.149l1.086-1.338
						c-1,2.176,3.39-1.214,3.855-0.307c1.075-2.495,5.54-3.926,7.622-7.717c0.787-0.508-0.338,0.773,0.165,0.585
						c0.475-1.018,1.262-2.038,3.139-3.489l-0.126,0.255c2.397-2.286,4.188-3.838,6.08-5.423c1.898-1.579,3.996-3.085,6.887-5.419
						l-0.724-0.002c1.253-0.995,1.604-1.101,2.247-1.498c0.93-1.748-3.429,2.898-2.674,1.204c2.162-0.727,8.745-7.148,10.534-7.195
						c1.921-1.533-0.903,0.015,1.024-1.512l0.703-0.156l0.264-0.676c1.33-0.919,2.205-1.112,2.404-0.948
						c-0.331,0.211-0.846,0.723-1.167,0.991c1.88-0.975,4.637-3.629,5.279-3.969l-1.997,1.271c1.31-1.049,2.677-2.177,4.164-3.215
						c1.481-1.047,2.997-2.117,4.507-3.184c2.993-2.175,6.047-4.207,8.592-6.245l-0.535,0.084c3.92-3.075,3.432-2.008,7.968-5.022
						l-0.141,0.148c0.81-0.762,1.991-1.623,3.273-2.386c-1.034,0.946,2.464-0.925,1.08,0.271c4.372-3.161,2.105-1.655,4.75-4.175
						l0.896-0.091c0.88-0.898,0.879-1.103,3.19-2.554c-1.775,1.398,1.782-0.381-0.173,1.24c2.654-1.104,4.438-2.248,5.877-3.228
						c1.445-0.967,2.577-1.711,4.006-1.814c1.819-2.161-4.609,1.864-3.424,0.967c-1.243,0.295,1.537-1.711,3.164-2.481
						c1.609-0.872,3.358-0.297,7.427-2.406c-0.408,0.204-0.4,0.287-0.807,0.491c1.646-0.549,2.833-1.85,4.897-2.43
						c0.77-1.102,2.474-1.163,2.427-2.029c0,0-0.929,0.498-1.857,0.996c-0.918,0.519-1.835,1.038-1.835,1.038
						c2.017-1.298,3.657-3.052,7.396-4.373c-0.208,0.277-1.172,0.975-1.846,1.429c1.138-0.289,1.929-1.101,3.107-1.402
						c0.035,0.863-4.537,2.376-6.573,4.026c1.258-0.234,4.102-2.611,3.321-1.284c1.189-1.781,4.125-1.837,6.571-3.932l0.014,0.516
						c0.415-0.273,1.25-0.894,2.079-1.257l-1.233,1.233c2.07-1.513,4.603-1.579,6.678-2.831c-4.589,2.092-1.266-0.055-3.354,0.51
						c5.432-3.121,3.741-0.412,10.059-3.335c-0.84,0.43-3.371,1.123-2.101,0.344c1.26-0.429,2.944-0.947,3.79-1.036
						c4.209-1.896-0.842-0.173,0.853-1.21c1.672-0.08,1.994-1.11,3.795-2.062l0.196,0.441c5.007-1.664,0.919-1.449,5.467-2.86
						l-1.614,1.364l2.232-1.076l-0.271,0.699c2.351-1.362,3.154-1.614,5.675-2.391c-0.695-0.103,0.009-0.938,2.191-1.77
						c1.592-0.289-0.673,0.741,2.401-0.481c-0.595,0.544-1.226,1.185-2.73,1.273c-0.083,0.199-0.582,0.541-0.668,0.739
						c1.719-0.291,4.054-1.436,5.174-1.858c-0.438,0.144-0.962,0.312-1.25,0.347l4.261-2.299c0.774-0.078,0.257,0.254-0.252,0.587
						c0.897-0.373,1.457-0.801,2.791-1.312c-0.217,0.491,0.001,0.844-1.84,1.684l4.159-1.917c0.345,0.06,2.364-0.331,1.853,0.001
						c1.231-0.306,2.628-1.005,4.135-1.713c1.514-0.685,3.131-1.395,4.772-1.771c0.142-0.126,0.452-0.304,1.112-0.58
						c1.512-0.447,2.968-0.774,4.469-1.197c1.51-0.394,3.066-0.882,4.774-1.684l2.232,0.055c2.752-1.006-3.002-0.011,1.584-1.687
						c3.241-1.219,1.401,0.196,2.618,0.044c1.549-0.807,4.226-2.315,7.432-2.629C215.38,34.643,214.56,34.767,213.631,35.084z
						 M248.586,26.023c-0.662,0.251-1.957,0.858-2.518,0.691C246.727,26.002,247.388,26.126,248.586,26.023z M302.585,15.793
						c-0.499,0.224-1.308,0.246-2.233,0.178C301.003,15.849,301.748,15.774,302.585,15.793z M456,10.737
						c-0.029,0.005-0.051,0.009-0.077,0.014C454.381,10.363,454.927,10.508,456,10.737z M459.222,11.363
						c0.335-0.025,0.32-0.094,0.19-0.179c-0.241,0.092-0.971,0.006-1.797-0.135C457.831,11.205,458.239,11.345,459.222,11.363z
						 M117.796,67.625l0.624-0.178C117.205,68.226,117.505,67.931,117.796,67.625z"/>
					<path fill="#F8F7F9" d="M296.48,17.225c-0.207-0.056-0.273-0.139-0.331-0.223C295.886,17.117,295.893,17.21,296.48,17.225z"/>
					<path fill="#F8F7F9" d="M192.238,41.877l-0.106,0.029c-0.048,0.046-0.07,0.084-0.078,0.117L192.238,41.877z"/>
					<path fill="#F8F7F9" d="M408.65,11.944c-0.667-0.076-1.038-0.168-1.284-0.261C407.327,11.8,407.63,11.903,408.65,11.944z"/>
					<path fill="#F8F7F9" d="M476.514,13.086l-2.094-0.223c1.007,0.145,1.347,0.308,1.84,0.468
						C476.232,13.212,475.864,12.985,476.514,13.086z"/>
					<path fill="#F8F7F9" d="M493.765,19.495c0.312,0.005,0.634,0.126,0.941,0.129l-0.032-0.236
						C493.399,19.137,492.473,19.127,493.765,19.495z"/>
					<path fill="#F8F7F9" d="M478.153,14.986c0.094,0.427,1.41,0.508,2.869,0.676c-0.087-0.013-0.17-0.023-0.256-0.043
						C481.296,15.131,479.72,15.058,478.153,14.986z"/>
					<path fill="#F8F7F9" d="M481.359,15.704c0.449,0.055,0.906,0.118,1.334,0.234C482.903,15.751,482.166,15.769,481.359,15.704z"
						/>
					<path fill="#F8F7F9" d="M463.373,11.626c0.678,0.193,0.504-0.458,0.873-0.244C465.087,10.97,459.554,11.408,463.373,11.626z"/>
					<polygon fill="#F8F7F9" points="479.088,16.498 478.659,15.918 477.781,16.181 					"/>
					<path fill="#F8F7F9" d="M467.769,14.231l2.283,0.522c-0.022-0.089,0.277-0.088,0.643-0.065
						C469.277,14.434,467.736,14.075,467.769,14.231z"/>
					<path fill="#F8F7F9" d="M470.694,14.688c0.738,0.133,1.443,0.24,1.867,0.228C472.161,14.854,471.297,14.727,470.694,14.688z"/>
					<polygon fill="#F8F7F9" points="475.916,16.12 475.254,15.902 473.635,15.595 					"/>
					<path fill="#F8F7F9" d="M442.835,11.292l-2.549-0.095c-0.272,0.147,0.41,0.316,1.36,0.337
						C442.263,11.472,443.211,11.495,442.835,11.292z"/>
					<path fill="#F8F7F9" d="M450.369,13.377c-0.673-0.168-0.708-0.283-1.077-0.484l-0.14,0.611L450.369,13.377z"/>
					<path fill="#F8F7F9" d="M442.979,12.83c-0.269,0.148-3.711,0.148-0.505,0.41C442.744,13.094,445.29,13.189,442.979,12.83z"/>
					<polygon fill="#F8F7F9" points="404.748,10.203 405.396,10.202 405.317,9.182 					"/>
					<path fill="#F8F7F9" d="M371.018,12.982c3.015,0.155,0.696-0.649,3.424-0.425c0.7-0.262-2.23-0.183-1.511-0.412
						C371.121,12.453,370.164,12.337,371.018,12.982z"/>
					<path fill="#F8F7F9" d="M372.931,12.146c0.29-0.049,0.597-0.106,0.923-0.182C373.329,12.042,373.083,12.098,372.931,12.146z"/>
					<polygon fill="#F8F7F9" points="21.844,137.413 20.354,138.706 21.466,138.011 					"/>
					<path fill="#F8F7F9" d="M19.846,140.676l-0.795-0.097l-0.361,1.253C18.969,141.489,19.51,140.823,19.846,140.676z"/>
					<path fill="#F8F7F9" d="M254.105,26.19l0.113-0.183c-0.327-0.106-0.773-0.029-1.665,0.125L254.105,26.19z"/>
					<polygon fill="#F8F7F9" points="228.496,31.597 228.935,31.496 227.975,31.141 					"/>
					<path fill="#F8F7F9" d="M207.524,38.147c0.861-0.245,1.837-0.657,2.711-0.877C208.384,37.893,207.086,37.521,207.524,38.147z"
						/>
				</g>
			</g>
		</g>
	</g>
</g>
<g>
	<g>
		<g>
			<g>
				<g>
					<path fill="#F7F5F7" d="M37.945,143.565c0.07,0.037,0.045-0.382,0.055-0.458C37.883,143.2,37.948,143.674,37.945,143.565z"/>
					<polygon fill="#F7F5F7" points="36.792,144.515 36.813,144.344 36.643,144.763 					"/>
					<path fill="#F7F5F7" d="M35.715,144.506c0.1,0.714,0.391-0.115,0.582,0.14l0.031,0.162l0.088-0.574
						C36.183,144.324,35.878,144.705,35.715,144.506z"/>
					<path fill="#F7F5F7" d="M35.146,142.961c0.034,0.278-0.125,0.239,0.133,0.087c-0.011-0.03-0.017-0.048-0.024-0.07
						C35.232,142.981,35.2,142.981,35.146,142.961z"/>
					<path fill="#F7F5F7" d="M35.255,142.978C35.369,142.958,35.182,142.744,35.255,142.978L35.255,142.978z"/>
					<path fill="#F7F5F7" d="M34.733,143.135l0.149-0.247c-0.03-0.164-0.162-0.202-0.112-0.321
						C34.618,142.701,34.648,142.864,34.733,143.135z"/>
					<path fill="#F7F5F7" d="M34.59,143.654l0.078-0.104C34.654,143.481,34.634,143.457,34.59,143.654z"/>
					<path fill="#F7F5F7" d="M34.832,143.33l-0.164,0.22c0.021,0.116,0.022,0.348,0.075-0.079
						C34.728,143.682,34.761,143.479,34.832,143.33z"/>
					<path fill="#F7F5F7" d="M34.923,143.439c0.083,0.156,0.191,0.254,0.04,0.5C35.25,143.842,35.208,143.341,34.923,143.439z"/>
					<path fill="#F7F5F7" d="M35.658,145.244l0.111,0.209l0.098-0.239C35.818,145.333,35.651,145.021,35.658,145.244z"/>
					<path fill="#F7F5F7" d="M33.812,142.757c-0.01,0.151,0.047,0.405,0.056,0.6l0.111-0.173
						C33.924,143.079,33.818,142.982,33.812,142.757z"/>
					<path fill="#F7F5F7" d="M33.869,143.356l-0.166,0.26C33.849,143.647,33.877,143.524,33.869,143.356z"/>
					<polygon fill="#F7F5F7" points="34.559,144.446 34.832,143.901 34.507,144.453 					"/>
					<polygon fill="#F7F5F7" points="33.188,142.732 33.284,142.382 33.114,142.911 					"/>
					<path fill="#F7F5F7" d="M32.773,142.79c0.072-0.29-0.088-0.493-0.014-0.672c-0.113,0.051-0.212,0.301-0.301,0.524
						C32.551,142.518,32.649,142.551,32.773,142.79z"/>
					<path fill="#F7F5F7" d="M32.308,142.969c0.047-0.069,0.096-0.194,0.15-0.326C32.408,142.709,32.359,142.806,32.308,142.969z"/>
					<path fill="#F7F5F7" d="M33.424,143.538c-0.012-0.092-0.034-0.332-0.125-0.435l0.061,0.428
						C33.379,143.533,33.401,143.536,33.424,143.538z"/>
					<path fill="#F7F5F7" d="M33.361,143.545l-0.002-0.014c-0.07-0.013-0.118-0.021-0.139-0.025
						C33.238,143.511,33.28,143.522,33.361,143.545z"/>
					<path fill="#F7F5F7" d="M33.44,143.54l-0.016-0.002C33.43,143.58,33.433,143.595,33.44,143.54z"/>
					<path fill="#F7F5F7" d="M34.13,144.057c-0.098,0.237-0.302,0.492-0.109,0.858C34.093,144.623,33.982,144.414,34.13,144.057z"/>
					<path fill="#F7F5F7" d="M33.516,144.075l0.173,0.1c-0.002-0.113-0.032-0.278,0.017-0.396L33.516,144.075z"/>
					<polygon fill="#F7F5F7" points="33.429,144.21 33.516,144.075 33.451,144.038 					"/>
					<path fill="#F7F5F7" d="M32.601,143.371c-0.078,0.186-0.16,0.2-0.253,0.229c0.099,0.085,0.201,0.131,0.299,0.131
						C32.662,143.598,32.708,143.357,32.601,143.371z"/>
					<path fill="#F7F5F7" d="M32.97,143.493l-0.017,0.024C32.963,143.554,32.971,143.565,32.97,143.493z"/>
					<path fill="#F7F5F7" d="M31.434,143.583c0.004,0.023,0.009,0.053,0.014,0.078l0.004-0.074L31.434,143.583z"/>
					<path fill="#F7F5F7" d="M32.663,143.812c0.074,0.083,0.12-0.021,0.164-0.152c-0.056,0.042-0.116,0.069-0.18,0.072
						C32.64,143.792,32.638,143.832,32.663,143.812z"/>
					<path fill="#F7F5F7" d="M32.05,143.166c0.038,0.09,0.081,0.166,0.126,0.236C32.141,143.267,32.066,143.055,32.05,143.166z"/>
					<path fill="#F7F5F7" d="M32.929,143.399l0.011-0.02C32.917,143.288,32.919,143.333,32.929,143.399z"/>
					<path fill="#F7F5F7" d="M32.929,143.399c-0.039,0.061-0.071,0.166-0.103,0.26c0.046-0.033,0.089-0.079,0.126-0.142
						C32.944,143.487,32.936,143.441,32.929,143.399z"/>
					<path fill="#F7F5F7" d="M31.106,146.319c0.021-0.396,0.226-0.757,0.39-0.328c0.174-0.293,0.084-1.599-0.048-2.33
						c-0.008,0.173-0.011,0.332-0.188,0.562c0.056,0.218,0.374,0.516,0.222,0.87c-0.232,0.199-0.185-0.145-0.292-0.356
						c0.085,0.496-0.305,0.711-0.27,1.438l0.207-0.25C31.128,146.036,31.052,146.215,31.106,146.319z"/>
					<path fill="#F7F5F7" d="M31.773,143.709l0.071-0.048c-0.08-0.07-0.135-0.229-0.235-0.542c-0.12,0.19-0.147,0.337-0.158,0.468
						l0.346,0.063L31.773,143.709z"/>
					<path fill="#F7F5F7" d="M32.163,143.663c-0.062,0.431-0.235,0.612-0.137,1.08c0.209-0.028,0.151-0.359,0.279-0.545
						c-0.338,0.104,0.1-0.239-0.14-0.485c0.067-0.073,0.127-0.095,0.183-0.112c-0.06-0.053-0.117-0.118-0.171-0.198l0.007,0.027
						l0.001-0.002l0,0.007c0.014,0.054,0.018,0.087,0.002,0.056c-0.001,0.005-0.005,0.007-0.007,0.008
						c-0.006,0.061-0.012,0.112-0.017,0.163c-0.096-0.09-0.014-0.112,0.017-0.163l0.005-0.063l-0.001-0.005l-0.339,0.231
						C31.915,143.724,32.004,143.711,32.163,143.663z"/>
					<path fill="#F7F5F7" d="M33.833,145.84c-0.01-0.038-0.009-0.069-0.01-0.101C33.801,145.792,33.792,145.828,33.833,145.84z"/>
					<path fill="#F7F5F7" d="M33.696,145.578c0.025-0.06,0.047-0.231,0.127-0.187c0.068,0.13-0.002,0.206,0,0.348
						c0.049-0.113,0.171-0.308,0.021-0.519l-0.024,0.059c-0.135-0.148-0.305-0.688-0.281-0.747
						C33.576,144.921,33.609,145.197,33.696,145.578z"/>
					<path fill="#F7F5F7" d="M32.916,144.73l-0.284,0.209l0.139,0.374l-0.005-0.224C32.926,145.179,32.894,144.902,32.916,144.73z"
						/>
					<polygon fill="#F7F5F7" points="31.406,143.368 31.451,142.914 31.279,143.553 					"/>
					<polygon fill="#F7F5F7" points="31.044,143.414 31.065,143.019 30.965,143.255 					"/>
					<path fill="#F7F5F7" d="M10.699,141.746l-0.108-0.12C10.624,141.686,10.66,141.722,10.699,141.746z"/>
					<path fill="#F7F5F7" d="M10.64,142.721l0.196-0.033C10.729,142.675,10.65,142.679,10.64,142.721z"/>
					<path fill="#F7F5F7" d="M22.234,142.996c-0.081-0.381-0.152-0.966-0.183-0.521l-0.007,0.436
						C22.133,142.843,22.19,142.897,22.234,142.996z"/>
					<path fill="#F7F5F7" d="M15.854,144.721c0,0.043,0,0.09-0.001,0.135c0.068-0.137,0.132-0.265,0.192-0.383
						C15.986,144.55,15.922,144.634,15.854,144.721z"/>
					<path fill="#F7F5F7" d="M15.215,146.418l-0.134-0.315C15.097,146.205,15.138,146.31,15.215,146.418z"/>
					<path fill="#F7F5F7" d="M10.567,137.836l-0.426-0.15C10.124,137.842,10.354,137.799,10.567,137.836z"/>
					<path fill="#F7F5F7" d="M27.343,143.456c-0.095-0.174-0.172-0.249-0.243-0.273C27.211,143.438,27.294,143.814,27.343,143.456z"
						/>
					<path fill="#F7F5F7" d="M15.342,141.227c-0.079-0.006-0.168-0.001-0.267,0.017C15.149,141.256,15.233,141.252,15.342,141.227z"
						/>
					<path fill="#F7F5F7" d="M26.806,143.171c0.016,0.044,0.032,0.067,0.049,0.104c0.078-0.069,0.156-0.125,0.246-0.093
						C27.019,142.993,26.92,142.874,26.806,143.171z"/>
					<path fill="#F7F5F7" d="M12.842,125.992c0.021-0.005,0.032-0.014,0.056-0.018C12.84,125.962,12.835,125.974,12.842,125.992z"/>
					<path fill="#F7F5F7" d="M17.726,123.281c0.021,0.038,0.013,0.095,0.01,0.148C17.77,123.408,17.773,123.364,17.726,123.281z"/>
					<path fill="#F7F5F7" d="M29.595,143.19C29.672,143.164,29.608,143.143,29.595,143.19L29.595,143.19z"/>
					<path fill="#F7F5F7" d="M29.922,144.914c-0.018,0.049-0.032,0.11-0.036,0.211C29.895,145.021,29.907,144.954,29.922,144.914z"
						/>
					<path fill="#F7F5F7" d="M25.898,145.833l-0.007-0.002C25.91,145.917,25.907,145.9,25.898,145.833z"/>
					<path fill="#F7F5F7" d="M29.704,143.391c-0.027-0.054-0.059-0.1-0.094-0.131C29.625,143.293,29.653,143.336,29.704,143.391z"/>
					<path fill="#F7F5F7" d="M29.694,143.186c0.027,0.018,0.047,0.03,0.066,0.043C29.772,143.156,29.765,143.111,29.694,143.186z"/>
					<path fill="#F7F5F7" d="M29.487,143.212c0.044-0.006,0.084,0.016,0.123,0.048c-0.014-0.03-0.02-0.055-0.015-0.069
						C29.572,143.197,29.54,143.205,29.487,143.212z"/>
					<path fill="#F7F5F7" d="M12.881,132.479c0.014-0.004,0.024-0.006,0.043-0.01C12.76,132.36,12.783,132.399,12.881,132.479z"/>
					<polygon fill="#F7F5F7" points="19.735,147.249 19.747,147.229 19.737,147.213 					"/>
					<path fill="#F7F5F7" d="M19.41,147.537c0.19-0.521,0.25-0.448,0.328-0.324l0.061-1.252L19.41,147.537z"/>
					<path fill="#F7F5F7" d="M10.714,139.781l-0.406,0.172c-0.618-0.301-0.381-0.466-0.945-0.317
						c1.351,0.139,0.069,0.802,1.416,1.046l-0.3,0.203c0.018-0.061-0.062-0.07-0.044-0.131c-0.679,0.43,0.961,0.294,0.735,0.76
						c-0.112,0.177-0.313,0.334-0.471,0.232c0,0,0.081,0.088,0.162,0.175c0.081,0.082,0.163,0.164,0.163,0.164
						c-0.03,0.116-0.267,0.141-0.237,0.019l0.089,0.577l-0.041,0.007c0.213,0.026,0.54,0.103,0.678,0.134
						c-0.202,0.208-0.143-0.018-0.316,0.076c0-0.001,0.323,0.18,0.323,0.181c-0.361,0.271-0.698,0.145-0.64-0.109
						c-0.69,0.391-0.607,0.453-0.453,0.509c0.154,0.066,0.379,0.11-0.035,0.653l-0.164-0.258c-0.79,0.579-0.516,0.735-1.019,1.438
						c0.26-0.288,1.258-1.459,1.589-1.242c-0.107,0.152-0.162,0.326,0.11,0.358c-0.492,0.284-0.378,0.416-0.358,0.644L9.9,145.475
						c0.179,0.169,0.513-0.082,0.803-0.133c-0.074,0.331-0.584,0.778-1.015,1.187c0.323,0.253,0.473-0.695,1.133-0.647
						c0.14,0.28,0.691,0.135,1.428-0.094c0.076,0.241-0.363,0.319-0.419,0.494l0.636-0.381c0.045,0.021-0.092,0.152-0.162,0.217
						c0.341-0.127,0.508-0.54,0.905-0.631c0.288-0.297,0.228-0.047,0.245,0.207c0.01,0.253,0.112,0.515,0.508,0.192
						c-0.012,0.183-0.257,0.344-0.368,0.573c0.788-0.364,0.654-0.246,1.33-0.82c0,0,0.036,0.115,0.073,0.23
						c0.042,0.116,0.085,0.233,0.085,0.233c-0.062-0.505,0.457-0.973,0.773-1.382c0.01-0.234,0.019-0.439,0.023-0.54
						c0,0,0.092-0.068,0.185-0.136c0.086-0.07,0.172-0.14,0.172-0.14c0.005,0.107-0.072,0.318-0.188,0.567
						c0.032-0.049,0.062-0.096,0.091-0.139c0.046,0.246-0.084,0.601-0.265,0.929c-0.012-0.131-0.017-0.27-0.018-0.407
						c-0.186,0.357-0.413,0.748-0.51,1.109c0.05-0.064,0.121-0.114,0.186-0.136c-0.056,0.096-0.102,0.182-0.107,0.246
						c-0.006,0.067,0.082-0.059,0.191-0.201l-0.086,0.711l0.095-0.27c-0.021-0.002,0.479,0.537,0.444,0.529
						c0.427-0.658,0.861-1.659,1.367-1.877c-0.199,0.498-0.163,0.839-0.268,1.45c-0.021-0.668-0.41,0.217-0.633,0.046
						c0.116,0.088,0.038,0.375-0.012,0.472l0.536-0.519c-0.092,0.498,0.031,0.39,0.112,0.614c0.074-1.002,0.431-0.606,0.654-0.882
						c-0.04,0.334-0.135,0.666-0.339,0.552c0.125,0.783,0.487-1.113,0.622-0.443c-0.054,0-0.074-0.056-0.121,0.11
						c0.167-0.276,0.432,0.005,0.319,0.284l-0.054-0.002c0.333,0.182,1.068,0.168,1.227-0.678c-0.011,0.109-0.177,1.012-0.22,1.18
						l0.973-2.771c-0.143,0.72-0.141,2.471-0.482,2.847c0.071,0.113,0.161,0.245,0.369,0.01c-0.045-0.11-0.017-1.065,0.068-1.123
						c0.117,0.832,0.096,0.449,0.28,1.167c-0.068-0.165,0.157-1.292,0.286-1.241c-0.04,0.168-0.114,1.125-0.177,1.238l0.458-1.08
						c-0.104,0.191-0.118,0.945-0.076,1.271c-0.012-0.224,0.29,0.053,0.392-0.048l-0.116-0.275c0.364,0.212,0.533-1.531,0.896-1.432
						c-0.066,0.227-0.248,1.411-0.069,1.573c0.143-0.56,0.639-2.728,0.997-3.144l0.034,0.332l0.279-0.355
						c-0.223,0.853-0.819,2.637-1.131,3.325c0.119,0.27,0.005,0.39,0.221,0.376c0.048,0.312-0.158,0.457-0.223,0.471l0.483,0.236
						c0.035-0.673,0.438-0.644,0.464-1.203l-0.598,0.653c0.038-0.67,0.475-1.878,0.81-1.733c0.067,0.273-0.163,1.188-0.174,1.412
						c0.065-0.228,0.369-0.416,0.388-0.25l-0.177,0.348c0.177,0.267,0.387-0.865,0.574-0.208c0.078,0.049,0.181,0.882,0.224,0.486
						c-0.08-0.775,0.067-3.145,0.193-3.712c0.023,0.053,0.362,0.762,0.428,1.146c0.093,0.61-0.292,1.416-0.214,1.94
						c0.017-0.184,0.105-0.403,0.141-0.474c0.075,0.162-0.072,0.564,0.118,0.495c0.074-0.678,0.372,0.086,0.124-0.568
						c0.191-0.181,0.182,0.154,0.396,0.141c-0.041-0.442,0.276-1.487,0.464-1.674c-0.02,0.173,0.007,0.399,0.021,0.504
						c0.361,0.077,0.542,0.396,0.883,0.417c0.023,0.166,0.179,0.373,0.095,0.663c0.055-0.118,0.111-0.347,0.217-0.358
						c0.178,0.598-0.24,0.081-0.117,0.795c0.032-0.395,0.299-0.533,0.46-0.773c-0.02-0.613-0.341-0.133-0.504,0.107
						c0.04-0.844,0.341-1.714,0.708-2.088c0.288-0.197,0.099,0.55,0.153,0.433c0.522,0.171,0.503-1.452,0.916-0.824
						c0.155,0.543-0.028,1.069-0.002,1.458c-0.237,0.194-0.34-0.356-0.496-0.342l0.182,0.263c-0.08,0.176-0.238,0.304-0.316,0.145
						c0.128,0.492,0.893,0.132,1.289,0.583c0.079-0.179,0.209-0.362,0.156-0.58l-0.132,0.072c-0.106-0.437,0.26-0.594,0.103-0.8
						c0.182-0.301,0.388-0.775,0.624-0.524l0.03,0.614c0-0.18-0.149-0.369-0.223-0.184c0.107-0.27,0.353,0.838,0.483,0.038
						l-0.16-0.429c0.181-0.304,0.408-0.949,0.618-0.751c-0.084-0.607-0.051,0.068-0.188-0.644c0.112,0.884-0.546-0.05-0.356,0.881
						c-0.136-0.826-0.262-0.355-0.447-1.061c0.001,0.202,0.062,0.388-0.115,0.284c-0.01,0.059-0.031,0.134-0.044,0.178l-0.012-0.016
						l0.009,0.024c-0.008,0.029-0.009,0.036,0.003,0.008c0.041,0.09,0.072,0.196,0.083,0.31c-0.102,0.462-0.389,0.441-0.493,0.679
						c-0.104-0.099,0.052-0.23,0-0.448l-0.155,0.356c-0.001-0.449-0.26-0.753-0.001-1.01l-0.225-0.025
						c-0.125-0.253-0.302-0.362-0.421-0.179c-0.102-0.102-0.285,0.484-0.18,0.138l-0.362,0.262l0.001-0.112
						c-0.343-0.072-0.75,0.71-1.108-0.117c-0.123,0.107-0.25,0.24-0.44,0.104l-0.018-0.39c-0.157,0.129-0.428-0.408-0.515-0.007
						c-0.103-1.046-0.706-0.277-0.956-0.48l-0.044,0.506c-0.178-0.043-0.36,0.088-0.599,0.274l-0.019,0.448
						c-0.222,0.353-0.475-0.355-0.784-0.332c0.035-0.17,0.109-0.119,0.155-0.012c-0.28-1.036-0.834,0.677-1.103-0.083
						c-0.097,0.154-0.151,0.091-0.198-0.027c0.007,0,0.015-0.008,0.022-0.021c-0.008-0.006-0.021-0.009-0.033-0.009
						c-0.029-0.081-0.058-0.175-0.091-0.251c0.024,0.112,0.048,0.206,0.073,0.25c-0.064,0.002-0.165,0.047-0.27,0.148l0.007-0.484
						c-0.008,0.006-0.014,0.004-0.023,0.012c-0.074-0.188-0.097,0.219-0.083,0.584c-0.055,0.074-0.108,0.164-0.154,0.275
						c0.004-0.781-0.275,0.232-0.291-0.604c-0.106,0.395-0.505,0.249-0.652,1.089c0.009-0.11-0.013-0.166,0.04-0.167
						c-0.095-0.109-0.189-0.217-0.312,0.011l0.027-0.613l-0.329,0.792c-0.097-0.387-0.126-0.608,0.069-1.061
						c-0.423,0.682-0.304,0.241-0.682,0.921l0.065-0.391c-0.104,0.003-0.337,0.511-0.356,0.18c-0.124-0.778-1.109-0.282-1.577-1.063
						c-0.076,1.168-0.183-0.559-0.353,0.329c0.012-0.276-0.042-0.443,0.091-0.665c-0.339,0.221-0.362-0.5-0.698,0.219
						c0.016-0.278,0.134-0.389,0.133-0.554c-0.031,0.055-0.141,0.22-0.13,0.055c0.007-0.165,0.069-0.223,0.145-0.333
						c-0.215,0.014-0.371,0.849-0.595,1.62c-0.029-0.388-0.057-0.344-0.311,0.14c0.04-0.259,0.086-0.529,0.229-0.595
						c-0.069-0.054-0.2-0.436-0.517,0.151c0.057-0.153-0.071-0.063-0.131-0.001c-0.14-0.069-0.114-0.123-0.307-0.103l-0.024,0.102
						c-0.567,0.669-0.262,0.12-0.459,0.173l0.062-0.068c0.135-0.541-0.373,0.193-0.121-0.404l-0.413,0.403
						c-0.474,0.427-0.431,0.279-0.306,0.068c0.062-0.105,0.145-0.227,0.18-0.303c0.031-0.075,0.011-0.103-0.071-0.084l-0.275,0.277
						c-0.202,0.103,0.179-0.271,0.601-0.628c0.421-0.342,0.887-0.721,0.982-0.798c0.093-0.07,0.148-0.078,0.216-0.111
						c0.631-0.52-0.648,0.411-0.794,0.368c0.35-0.226,0.887-0.506,0.953-0.597c0.142-0.091-0.14,0.034-0.372,0.086
						c-0.232,0.058-0.414,0.034-0.081-0.14c-0.268,0.117-0.535,0.259-0.733,0.258c-0.09-0.123,1.014-0.538,0.18-0.442
						c0.073-0.026,0.142-0.043,0.208-0.056c-0.217-0.03-0.345-0.208-0.786-0.263c0.839-0.089,0.643-0.151,0.442-0.351
						c-0.199-0.224-0.415-0.436,0.346-0.37l-0.042-0.449l0.154,0.026c0.125-0.272-0.23-0.407-0.586-0.544
						c0.109-0.056,0.247,0.007,0.326,0.021c0.345-0.384,0.274-0.426-0.434-0.862l0.498,0.02c-0.274-0.13,0.849-0.509,0.327-0.985
						c0.055,0.012,0.149,0.032,0.215,0.073c-0.518-0.537,1.502-0.904-0.264-1.322l-0.398-0.367
						c-0.197,0.375-0.768-0.171-1.088-0.051c-0.08-0.173,0.602-0.325,0.664-0.12l-0.094,0.017c0.92,0.206,0.407-0.443,1.039-0.338
						c0.077-0.782,0.705-1.453,0.862-2.169l-0.736-0.037l0.085-0.247c0.18-0.038,0.58,0.006,0.519,0.182
						c0.425-0.026-0.29-0.361-0.446-0.393c0.354-0.306,0.817,0.28,0.854,0.174l-0.029-0.156l-0.09,0.02
						c-0.274-0.17-0.584-0.233-0.511-0.445c0.168-0.112,0.457,0.006,0.494-0.044c0.051,0.01,0.078-0.005,0.035-0.079l0.117-0.309
						l-0.591,0.029c-0.256-0.189,0.082-0.295-0.588-0.259c1.032-0.045,0.563-1.132,0.896-1.211
						c-0.379-0.273-0.336-0.469-0.243-0.704c-0.129,0.039-0.775-0.038-0.659-0.234c1.306,0.312,0.642-0.284,1.621-0.285
						c-0.657,0.04-0.048-0.626-0.985-0.546c0.138-0.157,0.496,0.077,0.83-0.001c-0.437-0.51,0.498-0.86,0.415-1.414
						c-0.172-0.039-0.452,0.002-0.69-0.155l0.914-0.123c-0.067-0.118-0.984-0.269-0.35-0.353c-0.15,0.001-0.377,0.003-0.42-0.075
						c1.026-0.877-0.334-2.19,1.415-2.993c-0.359,0.091-0.377-0.01-0.374-0.119c-0.091,0.058-0.429-0.067-0.667-0.09l0.723-0.339
						c-0.642-0.178,0.029-0.478-0.59-0.614l0.091,0.155c-0.71-0.29-1.682,0.016-2.625-0.152c0.808,0.328-1.326,0.342-0.176,0.855
						c-0.204,0.042-0.295-0.11-0.521-0.105c0.393,0.146,0.461,0.262,0.25,0.42l-0.097-0.037c0.015,0.542-0.413,0.7-0.784,1.247
						l0.475,0.035c-0.084,0.116-0.236,0.119-0.363,0.158c0.683,0.267,0.102-0.351,0.86-0.086c-0.98,0.009-0.17,0.897-1.27,0.825
						c-0.04,0.195,0.55,0.036,0.51,0.231l-0.301,0.001l0.368,0.114c-0.084,0.118-0.461,0.119-0.709,0.081
						c0.035-0.026-0.054-0.101-0.069-0.138c-0.373,0.106,0.037,0.488-0.085,0.526l0.212-0.156c0.182,0.58-0.319,1.17,0.181,1.795
						h0.227c0.336,0.469-0.299,0.274-0.188,0.743l-0.05-0.024c0.204,0.126,0.293,0.262,0.247,0.377
						c-0.238-0.156-0.538,0.117-0.797-0.077c0.36,0.508,0.305,0.273,1.072,0.703l-0.376,0.001c0.313,0.155,0.486,0.194,0.542,0.43
						c-0.282-0.234-0.581,0.041-0.96-0.233c-0.878,0.32,0.688,0.824-0.517,0.832c0.975,0.386,0.63-0.301,0.826-0.145
						c0.348-0.041,0.726,0.306,0.599,0.432c-0.048,0.142-1.337,0.025-1.382,0.398c0.011-0.035-0.065-0.051-0.054-0.087
						c-0.282,0.095,0.303,0.33-0.146,0.429c0.595,0.199-0.073,0.215,0.702,0.374l-0.122-0.369c0.17,0.228,1.053,0.561,0.555,0.802
						c-0.153-0.052-0.344-0.18-0.448-0.264c-0.246,0.054,0.122,0.203-0.131,0.26c-0.777-0.158-0.099-0.44-0.659-0.747
						c-0.347,0.044,0.499,0.485-0.33,0.239c1.05,0.33-0.201,0.342,0.583,0.732l-0.466-0.094c0.067,0.053,0.276,0.172,0.252,0.243
						l-0.586-0.233c0.486,0.29-0.515,0.323-0.264,0.567c0.05-0.416,0.579-0.002,0.948-0.121c0.548,0.606-1.271,0.096-1.136,0.704
						c-0.054-0.089,0.327-0.247,0.525-0.092c-0.114,0.093-0.316,0.209-0.573,0.237c0.039,0.394,0.492,0.017,0.755,0.222
						c-0.592,0.041,0.204,0.221,0.361,0.412l-0.477-0.07c-0.374,0.384,0.977,0.262,0.546,0.592l-0.637-0.26l0.14,0.227l-0.537-0.121
						c0.368,0.278,0.253,0.331,0.074,0.528c0.343-0.003,0.863,0.151,0.854,0.345c-0.301,0.091-0.445-0.137-0.412,0.146
						c-0.291-0.103-0.658-0.223-0.202-0.28c-0.154-0.034-0.292-0.103-0.444-0.137c-0.345,0.097-0.121,0.348-0.129,0.447
						c0.023-0.036,0.054-0.078,0.125-0.093l0.612,0.485c-0.188,0.039-0.326-0.029-0.461-0.098c0.042,0.088,0.254,0.172,0.28,0.295
						c-0.385-0.08-0.787-0.125-0.949-0.317l0.383,0.436c-0.172,0.004-0.49,0.138-0.627,0.07c-0.256,0.185,0.689,0.609,0.351,0.853
						c0.074,0.023,0.143,0.061,0.191,0.126c-0.125,0.249-0.625,0.437-0.117,0.81l-0.715,0.109c0.137,0.265,0.902-0.154,1.13,0.282
						c0.197,0.311-0.606,0.052-0.811,0.136c0.34,0.181,1.037,0.491,0.443,0.71C10.649,139.929,10.759,139.868,10.714,139.781z
						 M10.81,144.056c-0.1-0.032-0.411-0.07-0.12-0.271C11.248,143.629,10.977,143.819,10.81,144.056z M16.109,145.71
						c-0.081,0.148-0.148,0.057-0.192-0.136C15.989,145.546,16.053,145.575,16.109,145.71z M28.742,143.562
						c-0.002,0.008-0.004,0.014-0.007,0.023C28.617,143.393,28.659,143.469,28.742,143.562z M28.995,143.778
						c0.028-0.066,0.028-0.133,0.02-0.201c-0.022,0.122-0.081,0.129-0.146,0.093C28.883,143.797,28.914,143.885,28.995,143.778z
						 M16.225,132.202l-0.133,0.029C15.974,132.095,16.092,132.147,16.225,132.202z"/>
					<path fill="#F7F5F7" d="M15.295,146.223c0.002-0.083,0.024-0.17,0.048-0.258C15.288,146.036,15.256,146.125,15.295,146.223z"/>
					<polygon fill="#F7F5F7" points="10.646,137.864 10.652,137.855 10.567,137.836 					"/>
					<path fill="#F7F5F7" d="M24.725,147.665c-0.051-0.073-0.076-0.164-0.09-0.256C24.624,147.526,24.643,147.628,24.725,147.665z"
						/>
					<path fill="#F7F5F7" d="M30.393,142.991l-0.169,0.122c0.081-0.022,0.107,0.084,0.146,0.161
						C30.368,143.162,30.34,142.998,30.393,142.991z"/>
					<path fill="#F7F5F7" d="M31.786,146.011c0.025-0.059,0.052-0.005,0.078-0.065l-0.003-0.224
						C31.755,145.734,31.679,145.912,31.786,146.011z"/>
					<path fill="#F7F5F7" d="M30.509,144.598c0.004,0.406,0.112,0.271,0.231,0.198c-0.007,0.001-0.014,0.005-0.021,0
						C30.767,144.229,30.638,144.414,30.509,144.598z"/>
					<path fill="#F7F5F7" d="M30.768,144.783c0.037-0.019,0.074-0.028,0.109-0.008C30.895,144.548,30.834,144.727,30.768,144.783z"
						/>
					<path fill="#F7F5F7" d="M29.333,143.518c0.052,0.105,0.05-0.518,0.076-0.352C29.486,142.65,29.022,143.782,29.333,143.518z"/>
					<polygon fill="#F7F5F7" points="30.574,145.937 30.543,145.435 30.468,145.837 					"/>
					<path fill="#F7F5F7" d="M29.652,145.547l0.185,0.144c0-0.084,0.025-0.133,0.055-0.17
						C29.776,145.501,29.652,145.398,29.652,145.547z"/>
					<path fill="#F7F5F7" d="M29.892,145.521c0.06,0.011,0.118,0.002,0.154-0.079C30.012,145.445,29.942,145.461,29.892,145.521z"/>
					<polygon fill="#F7F5F7" points="30.313,146.081 30.259,145.975 30.127,145.936 					"/>
					<path fill="#F7F5F7" d="M27.633,145.38l-0.211,0.134c-0.028,0.171,0.023,0.278,0.103,0.213
						C27.579,145.609,27.658,145.547,27.633,145.38z"/>
					<path fill="#F7F5F7" d="M28.203,146.779c-0.052-0.106-0.052-0.219-0.077-0.385l-0.029,0.62L28.203,146.779z"/>
					<path fill="#F7F5F7" d="M27.592,146.896c-0.028,0.171-0.323,0.48-0.058,0.453C27.563,147.18,27.777,147.047,27.592,146.896z"/>
					<polygon fill="#F7F5F7" points="24.518,145.941 24.571,145.938 24.633,144.921 					"/>
					<path fill="#F7F5F7" d="M21.543,148.143c0.228,0.271,0.121-0.619,0.317-0.29c0.081-0.233-0.161-0.269-0.081-0.469
						C21.605,147.62,21.54,147.468,21.543,148.143z"/>
					<path fill="#F7F5F7" d="M21.78,147.384c0.028-0.037,0.058-0.083,0.091-0.146C21.822,147.297,21.796,147.344,21.78,147.384z"/>
					<polygon fill="#F7F5F7" points="18.356,122.783 18.591,122.655 18.237,122.708 					"/>
					<path fill="#F7F5F7" d="M17.656,122.371l0.648,0.056l-0.566-0.179C17.761,122.288,17.806,122.365,17.656,122.371z"/>
					<path fill="#F7F5F7" d="M9.453,145.56l0.159-0.076c0.174-0.151,0.189-0.226,0.221-0.374L9.453,145.56z"/>
					<polygon fill="#F7F5F7" points="10.078,141.486 10.061,141.551 10.657,141.387 					"/>
					<path fill="#F7F5F7" d="M9.511,139.094c-0.031,0.075,0.091,0.179,0.06,0.254C9.48,139.169,10.242,139.143,9.511,139.094z"/>
				</g>
			</g>
		</g>
	</g>
</g>
<g>
	<path fill="#FFFFFF" d="M462.768,83.552c0.234-0.322,0.527-0.534,0.877-0.634c0.348-0.101,0.682-0.104,1-0.012
		s0.584,0.276,0.797,0.555c0.215,0.278,0.309,0.633,0.289,1.064c-0.037,0.433-0.178,0.853-0.416,1.256s-0.482,0.776-0.73,1.118
		c-0.566,0.822-1.234,1.467-2.006,1.937c-0.771,0.472-1.582,0.764-2.426,0.882c-0.848,0.116-1.705,0.047-2.574-0.207
		s-1.688-0.712-2.451-1.375c-0.455-0.392-0.854-0.819-1.193-1.281c-0.342-0.463-0.625-0.961-0.852-1.496
		c-0.34-0.784-0.57-1.62-0.695-2.511c-0.123-0.889-0.121-1.772,0.008-2.648c0.129-0.875,0.371-1.721,0.734-2.536
		c0.359-0.815,0.846-1.538,1.459-2.171c0.443-0.463,0.898-0.874,1.367-1.233c0.471-0.359,0.971-0.708,1.508-1.041
		c0.307-0.192,0.625-0.381,0.951-0.566c0.328-0.187,0.668-0.343,1.023-0.47c0.354-0.128,0.715-0.212,1.082-0.253
		c0.367-0.04,0.736-0.019,1.107,0.065c0.26,0.064,0.525,0.17,0.799,0.313c0.271,0.144,0.531,0.317,0.777,0.519
		c0.246,0.202,0.469,0.42,0.666,0.656c0.197,0.235,0.35,0.47,0.459,0.702c0.088,0.218,0.139,0.445,0.148,0.686
		c0.012,0.238-0.023,0.463-0.105,0.672c-0.084,0.209-0.211,0.395-0.381,0.556c-0.17,0.16-0.375,0.277-0.613,0.352
		c-0.393,0.115-0.707,0.12-0.945,0.016c-0.24-0.104-0.441-0.251-0.605-0.438c-0.164-0.189-0.322-0.374-0.477-0.554
		c-0.152-0.181-0.35-0.297-0.59-0.347c-0.139,0.021-0.242,0.047-0.309,0.075c-0.564,0.25-1.129,0.559-1.686,0.923
		c-0.557,0.365-1.061,0.779-1.514,1.244c-0.451,0.463-0.828,0.979-1.131,1.543c-0.303,0.565-0.492,1.175-0.566,1.828
		c-0.088,0.781-0.047,1.55,0.127,2.307s0.496,1.445,0.969,2.064c0.273,0.367,0.605,0.672,1.002,0.911
		c0.395,0.241,0.812,0.401,1.254,0.483c0.441,0.081,0.875,0.065,1.301-0.047c0.43-0.112,0.822-0.331,1.182-0.655
		c0.309-0.3,0.574-0.649,0.795-1.049C462.404,84.354,462.602,83.953,462.768,83.552z"/>
	<path fill="#FFFFFF" d="M471.77,85.17c0.219,0.144,0.414,0.34,0.588,0.588c0.174,0.249,0.285,0.508,0.338,0.776
		c0.051,0.268,0.031,0.529-0.062,0.785c-0.094,0.255-0.297,0.471-0.607,0.645c-0.246,0.128-0.531,0.191-0.852,0.188
		c-0.322-0.002-0.646-0.058-0.975-0.166c-0.33-0.108-0.629-0.252-0.898-0.432c-0.27-0.182-0.477-0.393-0.623-0.637
		c-0.049-0.082-0.09-0.177-0.125-0.287c-0.037-0.111-0.061-0.209-0.074-0.297l-2.301-14.476c-0.062-0.4,0.035-0.763,0.295-1.09
		c0.26-0.326,0.568-0.545,0.926-0.655c0.17-0.045,0.361-0.048,0.572-0.011c0.211,0.038,0.414,0.108,0.607,0.211
		c0.195,0.104,0.363,0.232,0.504,0.389c0.141,0.155,0.227,0.328,0.258,0.521c0.07,0.452,0.166,1.052,0.285,1.8
		c0.119,0.747,0.252,1.563,0.404,2.45c0.148,0.884,0.297,1.801,0.449,2.749c0.15,0.948,0.291,1.856,0.42,2.728
		s0.252,1.668,0.367,2.389c0.113,0.722,0.197,1.302,0.248,1.738L471.77,85.17z"/>
	<path fill="#FFFFFF" d="M472.342,70.772c-0.033-0.654,0.113-1.165,0.441-1.527c0.324-0.364,0.697-0.575,1.115-0.633
		s0.83,0.042,1.236,0.298c0.406,0.257,0.664,0.671,0.773,1.242c0.129,0.586,0.049,1.065-0.24,1.441
		c-0.287,0.376-0.646,0.619-1.074,0.731c-0.426,0.113-0.854,0.062-1.281-0.157c-0.426-0.217-0.73-0.623-0.914-1.218L472.342,70.772z
		 M478.145,85.065c0.02,0.354-0.053,0.683-0.219,0.984c-0.166,0.303-0.373,0.536-0.623,0.701c-0.252,0.164-0.539,0.236-0.861,0.217
		c-0.324-0.02-0.633-0.167-0.926-0.441c-0.166-0.152-0.299-0.33-0.395-0.538c-0.096-0.209-0.17-0.429-0.225-0.66
		c-0.055-0.233-0.096-0.467-0.125-0.702c-0.029-0.237-0.057-0.449-0.088-0.641c-0.182-1.024-0.348-2.04-0.498-3.05
		c-0.152-1.011-0.318-2.026-0.5-3.05c-0.066-0.418-0.158-0.835-0.279-1.253c-0.119-0.417-0.16-0.844-0.123-1.277
		c0.037-0.326,0.148-0.62,0.33-0.881s0.4-0.455,0.654-0.586c0.256-0.13,0.533-0.183,0.83-0.159c0.299,0.024,0.576,0.168,0.832,0.43
		c0.332,0.305,0.527,0.625,0.582,0.964c0.053,0.34,0.119,0.752,0.197,1.239c0.094,0.591,0.188,1.183,0.281,1.773
		c0.094,0.592,0.193,1.173,0.303,1.744c0.15,0.831,0.291,1.664,0.424,2.499s0.266,1.669,0.398,2.503L478.145,85.065z"/>
	<path fill="#FFFFFF" d="M487.158,81.039c0.389-0.348,0.785-0.534,1.182-0.562c0.396-0.026,0.74,0.057,1.029,0.251
		c0.287,0.194,0.479,0.486,0.566,0.873s0.02,0.822-0.209,1.303c-0.143,0.326-0.375,0.64-0.691,0.94
		c-0.318,0.3-0.631,0.545-0.939,0.737c-0.711,0.469-1.459,0.748-2.246,0.837c-0.789,0.091-1.547,0.015-2.271-0.227
		c-0.723-0.241-1.379-0.632-1.963-1.173c-0.586-0.539-1.029-1.204-1.334-1.993c-0.596-1.51-0.766-3.025-0.508-4.546
		c0.107-0.552,0.258-1.093,0.449-1.623c0.193-0.528,0.449-1.024,0.77-1.484c0.316-0.461,0.688-0.882,1.109-1.26
		c0.42-0.379,0.9-0.665,1.441-0.858c0.371-0.13,0.859-0.203,1.463-0.218c0.602-0.016,1.205,0.044,1.807,0.18
		c0.6,0.136,1.143,0.354,1.629,0.65c0.482,0.298,0.791,0.694,0.922,1.191c0.08,0.271,0.086,0.534,0.02,0.785
		c-0.068,0.252-0.184,0.471-0.35,0.657c-0.168,0.187-0.371,0.331-0.613,0.432c-0.244,0.101-0.5,0.138-0.773,0.108
		c-0.326-0.037-0.592-0.113-0.799-0.233c-0.205-0.118-0.477-0.276-0.809-0.473c-0.146-0.012-0.285-0.048-0.42-0.106
		c-0.135-0.06-0.27-0.068-0.406-0.03l-0.691,0.19c-0.111,0.09-0.213,0.168-0.309,0.236c-0.098,0.069-0.193,0.138-0.289,0.206
		c-0.498,0.686-0.828,1.411-0.99,2.177c-0.166,0.767-0.111,1.556,0.16,2.367c0.172,0.525,0.412,0.942,0.721,1.251
		c0.309,0.307,0.643,0.498,1.002,0.575s0.734,0.03,1.127-0.139s0.76-0.469,1.102-0.897L487.158,81.039z"/>
	<path fill="#FFFFFF" d="M495.227,83.515c-0.309,0.306-0.65,0.481-1.027,0.523s-0.73-0.058-1.062-0.299
		c-0.334-0.24-0.539-0.613-0.619-1.119l-2.363-14.867c-0.041-0.26-0.006-0.511,0.107-0.751c0.113-0.242,0.271-0.449,0.477-0.625
		c0.203-0.175,0.438-0.306,0.699-0.392c0.264-0.086,0.512-0.117,0.748-0.092c0.234,0.025,0.451,0.124,0.648,0.298
		s0.332,0.433,0.406,0.778c0.266,1.348,0.486,2.561,0.658,3.639c0.17,1.078,0.334,2.167,0.492,3.265
		c0.352-0.359,0.682-0.728,0.986-1.106c0.305-0.378,0.604-0.77,0.896-1.172c0.262-0.38,0.506-0.797,0.736-1.254
		c0.23-0.455,0.559-0.798,0.988-1.025c0.312-0.156,0.619-0.224,0.918-0.199c0.297,0.023,0.562,0.12,0.793,0.288
		c0.232,0.169,0.406,0.391,0.521,0.665c0.113,0.276,0.146,0.588,0.094,0.935c-0.047,0.258-0.195,0.593-0.441,1.006
		c-0.246,0.415-0.525,0.842-0.84,1.284c-0.312,0.442-0.625,0.854-0.939,1.231c-0.314,0.381-0.57,0.676-0.77,0.886
		c0.713,0.563,1.42,1.138,2.119,1.722s1.406,1.168,2.123,1.749c0.309,0.253,0.598,0.479,0.869,0.678
		c0.273,0.197,0.521,0.447,0.748,0.749c0.184,0.257,0.273,0.538,0.268,0.841c-0.006,0.304-0.082,0.58-0.229,0.825
		c-0.148,0.246-0.35,0.443-0.602,0.591c-0.254,0.146-0.545,0.201-0.871,0.164c-0.309-0.04-0.621-0.154-0.938-0.345
		c-0.314-0.191-0.621-0.405-0.916-0.645c-0.297-0.237-0.582-0.486-0.854-0.746c-0.275-0.26-0.523-0.478-0.748-0.657
		c-0.555-0.464-1.105-0.925-1.65-1.382s-1.102-0.899-1.668-1.326l0.721,4.538C495.695,82.758,495.533,83.207,495.227,83.515z"/>
	<path fill="#FFFFFF" d="M513.707,73.771c0.041-0.523,0.133-1.046,0.273-1.567c0.139-0.522,0.33-1.029,0.572-1.522
		s0.531-0.953,0.863-1.381c0.334-0.427,0.709-0.789,1.125-1.087c0.732-0.546,1.504-0.886,2.311-1.023
		c0.809-0.137,1.586-0.096,2.332,0.125c0.748,0.22,1.418,0.616,2.008,1.191c0.592,0.575,1.037,1.302,1.338,2.181
		c0.18,0.577,0.316,1.131,0.41,1.66c0.094,0.528,0.125,1.089,0.094,1.683c-0.045,0.847-0.268,1.714-0.668,2.606
		c-0.402,0.894-0.93,1.673-1.582,2.338c-0.65,0.665-1.404,1.154-2.254,1.468c-0.85,0.312-1.754,0.313-2.713,0.004
		c-0.43-0.129-0.828-0.293-1.188-0.493c-0.363-0.201-0.701-0.454-1.018-0.762c-0.357-0.335-0.65-0.698-0.883-1.089
		c-0.23-0.393-0.436-0.806-0.609-1.241c-0.201-0.467-0.322-0.952-0.365-1.453c-0.045-0.5-0.061-0.992-0.049-1.476L513.707,73.771z
		 M516.924,73.821c-0.008,0.287-0.008,0.568,0,0.842c0.008,0.276,0.053,0.55,0.131,0.822c0.115,0.393,0.283,0.74,0.5,1.044
		c0.219,0.304,0.477,0.53,0.777,0.679c0.299,0.148,0.623,0.199,0.975,0.152c0.348-0.045,0.703-0.214,1.068-0.504
		c0.457-0.375,0.818-0.9,1.086-1.577c0.268-0.675,0.391-1.354,0.373-2.038c-0.02-0.683-0.191-1.306-0.514-1.87
		c-0.32-0.564-0.832-0.924-1.535-1.08c-0.434,0.069-0.82,0.216-1.16,0.438c-0.338,0.224-0.621,0.491-0.848,0.804
		s-0.41,0.667-0.553,1.064C517.082,72.994,516.982,73.402,516.924,73.821z"/>
	<path fill="#FFFFFF" d="M538.064,75.596c0.018,0.444-0.086,0.825-0.312,1.147c-0.225,0.32-0.502,0.542-0.83,0.666
		c-0.328,0.123-0.662,0.133-1,0.024c-0.338-0.105-0.611-0.375-0.822-0.805c-0.234-0.462-0.375-0.961-0.424-1.496
		c-0.051-0.536-0.111-1.03-0.184-1.482c-0.148-0.939-0.293-1.874-0.432-2.807c-0.139-0.931-0.328-1.859-0.564-2.785
		c-0.023-0.032-0.043-0.059-0.066-0.082c-0.021-0.024-0.061-0.058-0.123-0.101c-0.416-0.041-0.838,0.053-1.264,0.281
		c-0.43,0.228-0.779,0.488-1.053,0.781c-0.244,0.271-0.469,0.622-0.676,1.057s-0.281,0.834-0.223,1.199l0.572,3.6
		c0.043,0.278,0.1,0.582,0.17,0.909s0.107,0.65,0.113,0.971c0.008,0.319-0.047,0.622-0.162,0.908s-0.338,0.517-0.664,0.694
		c-0.182,0.1-0.355,0.153-0.523,0.163c-0.168,0.009-0.354-0.007-0.555-0.046c-0.33-0.054-0.584-0.196-0.764-0.427
		c-0.18-0.229-0.318-0.483-0.416-0.763c-0.098-0.278-0.164-0.553-0.197-0.824c-0.033-0.271-0.064-0.483-0.088-0.641
		c-0.064-0.399-0.16-0.979-0.289-1.732c-0.129-0.755-0.26-1.55-0.393-2.385s-0.26-1.631-0.379-2.387
		c-0.121-0.756-0.213-1.335-0.277-1.735c-0.061-0.382,0.004-0.718,0.189-1.005c0.186-0.288,0.424-0.495,0.717-0.623
		c0.291-0.126,0.615-0.16,0.973-0.101s0.676,0.245,0.957,0.557c0.623-0.562,1.342-0.989,2.15-1.277
		c0.811-0.29,1.602-0.389,2.373-0.298c0.773,0.092,1.453,0.386,2.039,0.88c0.586,0.495,0.969,1.246,1.146,2.252
		c0.006,0.034,0.029,0.137,0.076,0.308c0.045,0.172,0.092,0.413,0.143,0.727L538.064,75.596z"/>
	<path fill="#FFFFFF" d="M561.281,71.425c0.219,0.482,0.258,0.904,0.121,1.265c-0.141,0.36-0.369,0.624-0.691,0.792
		c-0.32,0.166-0.691,0.212-1.113,0.136c-0.424-0.074-0.814-0.297-1.178-0.668c-0.428,0.441-0.861,0.774-1.299,0.996
		c-0.438,0.221-0.949,0.386-1.537,0.498c-0.883,0.176-1.689,0.201-2.422,0.078c-0.732-0.125-1.377-0.385-1.93-0.778
		s-0.998-0.924-1.334-1.592c-0.338-0.668-0.545-1.468-0.623-2.402c-0.027-0.387-0.021-0.771,0.018-1.152
		c0.037-0.379,0.09-0.754,0.156-1.121c0.078-0.404,0.209-0.844,0.391-1.319c0.184-0.474,0.381-0.889,0.592-1.243
		c0.758-1.297,1.799-2.31,3.127-3.037c0.23-0.126,0.549-0.257,0.955-0.393c0.404-0.137,0.822-0.233,1.25-0.293
		c0.428-0.059,0.846-0.066,1.252-0.024c0.408,0.041,0.729,0.178,0.961,0.409c0.189,0.183,0.332,0.349,0.428,0.494
		c0.094,0.144,0.158,0.304,0.195,0.476c0.035,0.173,0.064,0.359,0.09,0.561c0.021,0.202,0.057,0.451,0.104,0.746
		c0.078,0.487,0.148,0.961,0.215,1.424c0.062,0.462,0.141,0.926,0.234,1.394c0.023,0.156,0.057,0.361,0.098,0.612
		c0.039,0.253,0.09,0.517,0.15,0.791c0.062,0.276,0.127,0.538,0.193,0.786c0.066,0.247,0.137,0.445,0.213,0.594L561.281,71.425z
		 M555.564,71.131c0.172-0.152,0.367-0.322,0.588-0.508c0.221-0.187,0.41-0.391,0.572-0.613c-0.303-0.896-0.541-1.803-0.715-2.721
		c-0.172-0.918-0.314-1.848-0.43-2.793c-0.762,0.264-1.412,0.715-1.951,1.354c-0.541,0.639-0.875,1.342-1.002,2.11
		c-0.057,0.312-0.096,0.63-0.115,0.954s0.002,0.633,0.066,0.926c0.08,0.397,0.238,0.715,0.475,0.954
		c0.232,0.239,0.496,0.408,0.787,0.504s0.59,0.129,0.898,0.098C555.045,71.364,555.32,71.275,555.564,71.131z"/>
	<path fill="#FFFFFF" d="M573.588,69.95c0.018,0.443-0.086,0.825-0.312,1.147c-0.225,0.319-0.502,0.542-0.83,0.666
		c-0.328,0.122-0.66,0.132-0.998,0.024c-0.338-0.106-0.613-0.375-0.824-0.805c-0.232-0.462-0.375-0.961-0.424-1.497
		c-0.051-0.535-0.111-1.029-0.184-1.481c-0.148-0.939-0.293-1.875-0.432-2.807s-0.326-1.859-0.562-2.785
		c-0.023-0.032-0.045-0.059-0.068-0.083c-0.02-0.023-0.061-0.057-0.121-0.101c-0.418-0.041-0.84,0.054-1.266,0.281
		c-0.428,0.229-0.779,0.489-1.053,0.782c-0.244,0.271-0.467,0.622-0.676,1.057c-0.207,0.435-0.281,0.834-0.223,1.199l0.572,3.6
		c0.045,0.278,0.1,0.581,0.17,0.908c0.07,0.328,0.107,0.651,0.115,0.972c0.006,0.319-0.049,0.622-0.164,0.908
		c-0.113,0.286-0.336,0.517-0.664,0.694c-0.182,0.1-0.355,0.153-0.523,0.163c-0.168,0.009-0.352-0.007-0.555-0.046
		c-0.33-0.054-0.584-0.197-0.764-0.427s-0.318-0.484-0.416-0.763c-0.098-0.279-0.164-0.553-0.197-0.825
		c-0.033-0.27-0.064-0.483-0.088-0.641c-0.064-0.399-0.16-0.978-0.289-1.732c-0.129-0.754-0.26-1.549-0.393-2.384
		s-0.26-1.631-0.379-2.387c-0.121-0.756-0.213-1.335-0.277-1.735c-0.061-0.382,0.004-0.718,0.189-1.006
		c0.186-0.287,0.426-0.495,0.717-0.622s0.617-0.16,0.973-0.101c0.357,0.06,0.676,0.245,0.959,0.557
		c0.623-0.562,1.34-0.989,2.148-1.278c0.811-0.289,1.602-0.389,2.375-0.297c0.771,0.092,1.451,0.385,2.037,0.88
		c0.588,0.495,0.969,1.245,1.146,2.251c0.006,0.034,0.031,0.138,0.076,0.309c0.045,0.172,0.092,0.413,0.143,0.727L573.588,69.95z"/>
	<path fill="#FFFFFF" d="M582.693,57.406c0.154-0.382,0.375-0.662,0.668-0.842c0.291-0.18,0.596-0.26,0.912-0.239
		c0.314,0.021,0.609,0.136,0.883,0.342s0.469,0.505,0.584,0.897c0.082,0.289,0.092,0.715,0.029,1.277s-0.156,1.148-0.281,1.757
		c-0.129,0.608-0.264,1.191-0.406,1.749c-0.143,0.557-0.262,0.995-0.354,1.312c-0.383,1.398-0.822,2.779-1.32,4.142
		c-0.496,1.362-1.012,2.719-1.545,4.069c-0.074,0.207-0.158,0.462-0.254,0.762c-0.096,0.301-0.191,0.61-0.293,0.93
		s-0.207,0.621-0.324,0.907c-0.115,0.286-0.232,0.5-0.352,0.645c-0.268,0.346-0.561,0.57-0.883,0.675s-0.629,0.109-0.92,0.013
		c-0.293-0.098-0.543-0.279-0.756-0.549s-0.334-0.615-0.365-1.038c-0.008-0.158,0.029-0.375,0.109-0.646
		c0.082-0.271,0.182-0.555,0.295-0.849c0.113-0.295,0.229-0.576,0.346-0.844c0.119-0.268,0.207-0.487,0.27-0.658
		c0.258-0.629,0.502-1.256,0.732-1.882c0.229-0.624,0.465-1.25,0.705-1.876c-1.301-0.773-2.465-1.68-3.496-2.72
		c-1.029-1.04-1.883-2.229-2.559-3.566c-0.125-0.228-0.252-0.457-0.377-0.688c-0.125-0.229-0.191-0.479-0.197-0.745
		c-0.014-0.3,0.027-0.578,0.121-0.834c0.094-0.255,0.232-0.474,0.416-0.655c0.186-0.181,0.412-0.301,0.68-0.361
		c0.266-0.061,0.549-0.043,0.85,0.053c0.246,0.085,0.451,0.227,0.615,0.423c0.166,0.198,0.311,0.415,0.438,0.652
		c0.127,0.239,0.242,0.483,0.344,0.734c0.104,0.251,0.215,0.475,0.334,0.669c0.969,1.611,2.256,2.913,3.857,3.907
		c0.338-1.124,0.625-2.243,0.857-3.359c0.232-1.115,0.418-2.246,0.557-3.391L582.693,57.406z"/>
	<path fill="#FFFFFF" d="M597.936,64.984c-0.15-0.278-0.24-0.562-0.268-0.854c-0.029-0.289,0.002-0.562,0.096-0.817
		c0.094-0.256,0.25-0.467,0.475-0.636c0.223-0.17,0.51-0.265,0.865-0.286c0.193-0.013,0.375,0.012,0.545,0.074
		s0.33,0.145,0.48,0.245s0.301,0.21,0.453,0.329s0.307,0.219,0.461,0.301c0.332,0.18,0.672,0.295,1.02,0.346
		c0.346,0.053,0.707,0.075,1.08,0.068c0.242-0.038,0.43-0.13,0.557-0.274c0.129-0.146,0.207-0.309,0.23-0.492
		c0.025-0.181,0.008-0.37-0.049-0.566c-0.059-0.195-0.15-0.346-0.273-0.45c-0.344-0.25-0.734-0.383-1.174-0.402
		s-0.852-0.062-1.236-0.125c-0.549-0.091-1.098-0.231-1.645-0.421s-1.014-0.493-1.402-0.913c-0.408-0.435-0.686-0.92-0.834-1.459
		c-0.146-0.538-0.188-1.079-0.123-1.625c0.064-0.545,0.236-1.062,0.514-1.553c0.279-0.489,0.641-0.912,1.082-1.269
		c0.332-0.267,0.711-0.464,1.137-0.595c0.426-0.13,0.861-0.212,1.311-0.248c0.449-0.035,0.9-0.023,1.357,0.038
		c0.455,0.062,0.877,0.143,1.268,0.24c0.447,0.124,0.805,0.345,1.066,0.658c0.266,0.315,0.42,0.651,0.469,1.011
		c0.049,0.356-0.025,0.685-0.217,0.983c-0.195,0.297-0.518,0.482-0.971,0.555c-0.277,0.044-0.537,0.036-0.777-0.023
		c-0.24-0.059-0.49-0.113-0.748-0.162c-0.332-0.071-0.684-0.101-1.057-0.086c-0.371,0.015-0.664,0.083-0.875,0.205
		c-0.068,0.029-0.137,0.098-0.209,0.208c-0.072,0.109-0.119,0.236-0.139,0.383c-0.023,0.146-0.01,0.287,0.039,0.422
		s0.158,0.232,0.328,0.295c0.453,0.16,0.924,0.264,1.414,0.31c0.488,0.049,0.971,0.114,1.447,0.199
		c0.477,0.084,0.932,0.217,1.361,0.398s0.811,0.478,1.143,0.888c0.488,0.6,0.793,1.26,0.916,1.98
		c0.125,0.721,0.088,1.417-0.109,2.09c-0.195,0.673-0.545,1.276-1.047,1.812c-0.504,0.535-1.131,0.905-1.883,1.114
		c-0.531,0.139-1.066,0.191-1.605,0.161c-0.539-0.029-1.072-0.133-1.6-0.307s-1.027-0.402-1.5-0.685
		c-0.473-0.28-0.896-0.589-1.27-0.922L597.936,64.984z"/>
	<path fill="#FFFFFF" d="M608.988,56.114c-0.363-0.031-0.688-0.132-0.971-0.3c-0.285-0.169-0.498-0.384-0.639-0.648
		c-0.139-0.262-0.184-0.548-0.137-0.859c0.049-0.312,0.219-0.614,0.512-0.911c0.244-0.252,0.541-0.406,0.889-0.462
		c0.348-0.055,0.688-0.108,1.018-0.161c-0.02-0.122-0.07-0.386-0.152-0.792c-0.082-0.405-0.158-0.853-0.227-1.341
		s-0.113-0.959-0.131-1.41s0.027-0.775,0.141-0.972c0.27-0.541,0.664-0.84,1.182-0.896c0.516-0.056,0.977,0.125,1.383,0.541
		c0.082,0.077,0.164,0.171,0.244,0.282c0.08,0.112,0.129,0.22,0.146,0.325c0.115,0.623,0.221,1.249,0.311,1.876
		s0.186,1.254,0.285,1.88l2.061-0.327c0.314-0.05,0.6,0.012,0.859,0.184c0.258,0.173,0.459,0.392,0.598,0.655
		c0.141,0.262,0.211,0.545,0.215,0.847c0.004,0.304-0.092,0.568-0.287,0.795c-0.348,0.395-0.785,0.643-1.312,0.743
		c-0.529,0.102-1.07,0.197-1.627,0.285c0.152,0.957,0.299,1.914,0.443,2.871c0.143,0.959,0.299,1.915,0.469,2.867
		c0.066,0.418,0.156,0.841,0.268,1.268c0.113,0.428,0.148,0.851,0.107,1.267c-0.037,0.327-0.145,0.6-0.324,0.813
		c-0.18,0.216-0.396,0.366-0.65,0.452c-0.254,0.084-0.525,0.11-0.816,0.077c-0.291-0.035-0.574-0.138-0.852-0.308
		c-0.141-0.102-0.266-0.296-0.373-0.582s-0.197-0.593-0.268-0.92c-0.078-0.38-0.143-0.788-0.193-1.226
		c-0.057-0.349-0.127-0.8-0.217-1.357c-0.088-0.556-0.184-1.134-0.287-1.731c-0.105-0.6-0.199-1.167-0.285-1.707
		c-0.086-0.538-0.154-0.965-0.203-1.278L608.988,56.114z"/>
	<path fill="#FFFFFF" d="M629.018,60.659c0.219,0.483,0.26,0.905,0.121,1.265c-0.139,0.36-0.369,0.624-0.691,0.792
		c-0.318,0.166-0.691,0.213-1.113,0.137c-0.422-0.075-0.814-0.297-1.176-0.668c-0.43,0.441-0.863,0.773-1.301,0.995
		c-0.438,0.221-0.949,0.386-1.537,0.499c-0.883,0.175-1.689,0.201-2.422,0.077c-0.732-0.125-1.375-0.384-1.928-0.777
		c-0.553-0.395-1-0.924-1.336-1.593c-0.338-0.668-0.545-1.468-0.623-2.401c-0.025-0.388-0.02-0.772,0.018-1.152
		s0.09-0.754,0.156-1.121c0.078-0.405,0.209-0.845,0.391-1.32c0.184-0.474,0.381-0.889,0.592-1.243
		c0.758-1.297,1.801-2.31,3.129-3.037c0.229-0.126,0.547-0.256,0.953-0.392c0.406-0.137,0.822-0.234,1.25-0.293
		c0.428-0.06,0.846-0.067,1.252-0.025c0.408,0.042,0.729,0.178,0.961,0.409c0.191,0.184,0.332,0.349,0.428,0.494
		c0.094,0.145,0.158,0.304,0.195,0.477c0.037,0.172,0.066,0.358,0.09,0.561c0.021,0.201,0.057,0.45,0.104,0.745
		c0.078,0.487,0.148,0.962,0.215,1.424c0.062,0.463,0.141,0.927,0.234,1.394c0.023,0.156,0.057,0.361,0.098,0.612
		c0.039,0.253,0.09,0.518,0.152,0.792c0.061,0.275,0.125,0.537,0.191,0.785s0.137,0.445,0.213,0.594L629.018,60.659z
		 M623.301,60.365c0.174-0.152,0.369-0.321,0.59-0.508c0.219-0.187,0.408-0.391,0.57-0.612c-0.303-0.897-0.541-1.804-0.713-2.722
		c-0.174-0.917-0.316-1.848-0.43-2.793c-0.762,0.265-1.412,0.715-1.953,1.354c-0.539,0.639-0.873,1.343-1,2.11
		c-0.059,0.312-0.098,0.631-0.117,0.955c-0.02,0.323,0.002,0.632,0.066,0.926c0.082,0.397,0.238,0.715,0.475,0.954
		c0.234,0.238,0.496,0.407,0.787,0.503c0.293,0.096,0.592,0.13,0.898,0.098C622.781,60.6,623.057,60.511,623.301,60.365z"/>
	<path fill="#FFFFFF" d="M629.984,52.777c-0.361-0.032-0.686-0.132-0.969-0.3c-0.287-0.169-0.5-0.384-0.639-0.648
		c-0.141-0.262-0.186-0.548-0.137-0.859c0.047-0.312,0.219-0.614,0.51-0.911c0.246-0.252,0.543-0.406,0.891-0.462
		c0.348-0.055,0.686-0.109,1.016-0.161c-0.02-0.122-0.07-0.386-0.15-0.792c-0.084-0.405-0.16-0.853-0.227-1.341
		c-0.068-0.488-0.113-0.959-0.131-1.41c-0.02-0.451,0.027-0.775,0.139-0.972c0.27-0.541,0.664-0.841,1.182-0.896
		c0.518-0.055,0.977,0.126,1.383,0.542c0.084,0.077,0.166,0.171,0.246,0.282c0.08,0.112,0.129,0.22,0.145,0.325
		c0.117,0.623,0.221,1.248,0.311,1.876c0.092,0.627,0.188,1.254,0.287,1.88l2.061-0.327c0.312-0.05,0.598,0.012,0.857,0.184
		c0.26,0.173,0.459,0.392,0.6,0.654c0.139,0.263,0.211,0.546,0.215,0.848c0.004,0.304-0.094,0.568-0.289,0.794
		c-0.346,0.396-0.783,0.644-1.312,0.744c-0.527,0.102-1.07,0.196-1.625,0.285c0.152,0.957,0.299,1.914,0.441,2.871
		c0.145,0.958,0.301,1.915,0.471,2.867c0.066,0.418,0.154,0.84,0.268,1.268c0.111,0.428,0.148,0.851,0.107,1.267
		c-0.037,0.327-0.145,0.599-0.326,0.813c-0.178,0.216-0.396,0.365-0.648,0.452c-0.254,0.083-0.527,0.11-0.818,0.077
		c-0.291-0.035-0.574-0.138-0.85-0.308c-0.143-0.102-0.266-0.296-0.375-0.583c-0.107-0.285-0.195-0.592-0.266-0.919
		c-0.078-0.381-0.143-0.789-0.195-1.226c-0.055-0.349-0.127-0.8-0.215-1.357c-0.088-0.556-0.184-1.134-0.289-1.731
		c-0.104-0.6-0.199-1.167-0.285-1.707c-0.086-0.538-0.152-0.965-0.203-1.278L629.984,52.777z"/>
	<path fill="#FFFFFF" d="M648.416,55.171c0.4-0.171,0.77-0.233,1.105-0.189c0.338,0.045,0.611,0.166,0.82,0.364
		c0.211,0.198,0.332,0.464,0.367,0.797c0.035,0.334-0.057,0.704-0.277,1.113c-0.178,0.333-0.451,0.634-0.818,0.906
		s-0.715,0.497-1.043,0.674c-0.803,0.448-1.576,0.795-2.322,1.037c-0.746,0.243-1.463,0.356-2.152,0.342
		c-0.688-0.015-1.354-0.168-1.998-0.457c-0.643-0.289-1.271-0.742-1.887-1.358c-0.422-0.414-0.764-0.908-1.023-1.481
		c-0.262-0.573-0.451-1.173-0.566-1.796c-0.117-0.623-0.164-1.248-0.139-1.876c0.025-0.629,0.111-1.204,0.262-1.726
		c0.197-0.656,0.578-1.287,1.143-1.894c0.562-0.606,1.213-1.12,1.947-1.54c0.736-0.421,1.508-0.716,2.32-0.891
		c0.809-0.173,1.553-0.162,2.225,0.034c0.561,0.161,1.064,0.442,1.51,0.844c0.449,0.401,0.783,0.859,1.01,1.377
		c0.223,0.517,0.324,1.058,0.297,1.623c-0.025,0.566-0.23,1.111-0.609,1.635c-0.365,0.505-0.787,0.933-1.268,1.285
		c-0.477,0.353-0.98,0.673-1.504,0.962c-0.525,0.288-1.066,0.548-1.629,0.779c-0.559,0.231-1.094,0.478-1.605,0.737
		c0.432,0.358,0.891,0.558,1.377,0.597c0.488,0.038,0.982-0.019,1.484-0.17c0.502-0.15,0.996-0.375,1.484-0.677
		c0.486-0.3,0.936-0.616,1.346-0.949L648.416,55.171z M642.434,51.521c-0.363,0.29-0.613,0.62-0.752,0.988
		c-0.137,0.37-0.201,0.866-0.191,1.488c0.43-0.21,0.916-0.438,1.455-0.685c0.541-0.247,1.049-0.497,1.525-0.751
		c0.479-0.254,0.871-0.513,1.188-0.776c0.314-0.266,0.453-0.519,0.414-0.762c-0.023-0.139-0.066-0.27-0.129-0.394
		c-0.064-0.124-0.17-0.201-0.318-0.231c-0.514-0.097-1.023-0.051-1.529,0.136c-0.504,0.188-0.916,0.405-1.232,0.652L642.434,51.521z
		"/>
	<path fill="#FFFFFF" d="M662.85,47.554c-0.363-0.031-0.688-0.131-0.971-0.299c-0.285-0.169-0.498-0.385-0.639-0.648
		c-0.141-0.263-0.186-0.549-0.137-0.859c0.049-0.312,0.219-0.614,0.512-0.911c0.244-0.252,0.541-0.406,0.889-0.462
		s0.688-0.109,1.018-0.162c-0.02-0.122-0.07-0.385-0.152-0.791c-0.084-0.405-0.16-0.854-0.227-1.342
		c-0.068-0.487-0.113-0.958-0.131-1.41c-0.02-0.451,0.027-0.774,0.139-0.972c0.271-0.541,0.664-0.84,1.184-0.896
		c0.516-0.055,0.977,0.126,1.383,0.542c0.082,0.076,0.164,0.17,0.244,0.282s0.129,0.22,0.146,0.324
		c0.115,0.624,0.221,1.249,0.311,1.876c0.09,0.628,0.186,1.254,0.285,1.88l2.061-0.327c0.312-0.05,0.6,0.012,0.859,0.185
		c0.258,0.173,0.459,0.392,0.598,0.654c0.141,0.263,0.211,0.545,0.215,0.847c0.004,0.304-0.092,0.568-0.287,0.795
		c-0.348,0.395-0.785,0.644-1.312,0.743c-0.529,0.103-1.07,0.197-1.627,0.285c0.152,0.957,0.299,1.914,0.443,2.872
		c0.143,0.958,0.299,1.914,0.469,2.866c0.066,0.418,0.156,0.841,0.268,1.269c0.113,0.428,0.148,0.851,0.107,1.267
		c-0.037,0.327-0.145,0.599-0.324,0.813c-0.18,0.216-0.396,0.365-0.65,0.451c-0.254,0.084-0.525,0.111-0.818,0.077
		c-0.289-0.035-0.574-0.137-0.85-0.308c-0.141-0.102-0.266-0.296-0.373-0.582c-0.107-0.285-0.197-0.593-0.268-0.92
		c-0.078-0.38-0.143-0.788-0.195-1.226c-0.055-0.349-0.127-0.8-0.215-1.357c-0.088-0.556-0.184-1.133-0.287-1.731
		c-0.105-0.599-0.199-1.167-0.285-1.707c-0.086-0.538-0.154-0.965-0.203-1.278L662.85,47.554z"/>
	<path fill="#FFFFFF" d="M671.117,48.754c0.041-0.522,0.131-1.045,0.271-1.566c0.139-0.522,0.332-1.029,0.574-1.522
		s0.529-0.953,0.863-1.381c0.332-0.427,0.707-0.789,1.123-1.088c0.734-0.545,1.504-0.885,2.312-1.022
		c0.807-0.137,1.584-0.096,2.332,0.125c0.748,0.219,1.418,0.616,2.008,1.191s1.037,1.302,1.336,2.181
		c0.182,0.577,0.318,1.131,0.412,1.659c0.092,0.529,0.123,1.09,0.094,1.684c-0.045,0.846-0.268,1.714-0.67,2.606
		s-0.93,1.673-1.58,2.338c-0.652,0.665-1.404,1.154-2.254,1.468c-0.85,0.312-1.756,0.313-2.715,0.004
		c-0.43-0.129-0.826-0.294-1.188-0.493c-0.361-0.201-0.701-0.455-1.016-0.762c-0.357-0.335-0.652-0.698-0.883-1.09
		s-0.436-0.805-0.611-1.24c-0.199-0.467-0.32-0.952-0.365-1.453c-0.043-0.5-0.059-0.992-0.047-1.476L671.117,48.754z
		 M674.334,48.805c-0.01,0.287-0.008,0.568-0.002,0.842c0.01,0.276,0.053,0.55,0.131,0.822c0.115,0.393,0.283,0.74,0.5,1.044
		c0.219,0.304,0.479,0.53,0.777,0.679c0.301,0.148,0.625,0.199,0.975,0.152c0.348-0.045,0.703-0.214,1.068-0.504
		c0.459-0.375,0.82-0.9,1.088-1.577c0.266-0.675,0.391-1.354,0.371-2.038c-0.02-0.683-0.189-1.307-0.512-1.87
		c-0.322-0.564-0.834-0.924-1.535-1.08c-0.436,0.068-0.822,0.215-1.16,0.438s-0.623,0.491-0.85,0.804s-0.41,0.667-0.553,1.063
		C674.49,47.978,674.391,48.386,674.334,48.805z"/>
	<path fill="#FFFFFF" d="M697.959,49.222c0.219,0.144,0.414,0.34,0.588,0.589c0.172,0.249,0.285,0.507,0.336,0.775
		c0.053,0.269,0.031,0.529-0.061,0.786c-0.094,0.255-0.297,0.471-0.607,0.644c-0.246,0.129-0.531,0.191-0.852,0.188
		c-0.322-0.002-0.646-0.058-0.977-0.165c-0.33-0.108-0.627-0.253-0.898-0.432c-0.268-0.182-0.477-0.394-0.623-0.638
		c-0.047-0.081-0.09-0.177-0.125-0.287s-0.059-0.209-0.072-0.297l-2.301-14.475c-0.064-0.4,0.033-0.763,0.293-1.09
		c0.26-0.326,0.57-0.546,0.926-0.655c0.172-0.046,0.361-0.048,0.574-0.012c0.211,0.039,0.414,0.108,0.607,0.211
		c0.195,0.104,0.361,0.233,0.504,0.389c0.141,0.156,0.227,0.329,0.256,0.521c0.072,0.453,0.168,1.053,0.287,1.8
		c0.117,0.748,0.252,1.564,0.402,2.45c0.15,0.885,0.299,1.801,0.449,2.749s0.293,1.857,0.422,2.728
		c0.129,0.872,0.25,1.668,0.365,2.389c0.115,0.722,0.197,1.303,0.25,1.739L697.959,49.222z"/>
	<path fill="#FFFFFF" d="M699.625,44.224c0.041-0.523,0.133-1.046,0.273-1.567c0.139-0.521,0.33-1.028,0.572-1.521
		s0.531-0.954,0.863-1.381c0.334-0.428,0.709-0.789,1.125-1.088c0.732-0.545,1.504-0.885,2.311-1.023
		c0.807-0.136,1.586-0.096,2.332,0.125c0.748,0.22,1.418,0.617,2.008,1.191c0.592,0.575,1.037,1.303,1.336,2.181
		c0.182,0.577,0.318,1.131,0.412,1.66c0.094,0.528,0.123,1.09,0.094,1.684c-0.045,0.846-0.268,1.713-0.67,2.605
		c-0.402,0.894-0.93,1.673-1.58,2.338c-0.652,0.666-1.404,1.154-2.254,1.468c-0.85,0.312-1.754,0.314-2.713,0.004
		c-0.432-0.129-0.828-0.293-1.188-0.493c-0.363-0.2-0.701-0.454-1.018-0.762c-0.357-0.335-0.65-0.698-0.883-1.089
		c-0.23-0.392-0.436-0.805-0.611-1.24c-0.199-0.468-0.32-0.953-0.363-1.453c-0.045-0.501-0.061-0.993-0.049-1.477L699.625,44.224z
		 M702.842,44.273c-0.008,0.287-0.008,0.568,0,0.843c0.008,0.275,0.051,0.549,0.131,0.822c0.115,0.392,0.283,0.74,0.5,1.044
		s0.477,0.529,0.775,0.679c0.301,0.148,0.625,0.198,0.975,0.152s0.705-0.214,1.07-0.505c0.457-0.375,0.818-0.9,1.086-1.577
		c0.266-0.674,0.391-1.354,0.371-2.037c-0.02-0.683-0.189-1.307-0.512-1.87c-0.32-0.565-0.832-0.924-1.535-1.081
		c-0.434,0.069-0.82,0.216-1.16,0.438c-0.338,0.225-0.623,0.492-0.848,0.804c-0.229,0.312-0.412,0.667-0.553,1.064
		C702.998,43.447,702.9,43.855,702.842,44.273z"/>
	<path fill="#FFFFFF" d="M724.611,45.467c0.219,0.483,0.258,0.905,0.121,1.265c-0.141,0.36-0.369,0.624-0.691,0.792
		c-0.32,0.166-0.691,0.213-1.113,0.137c-0.424-0.075-0.814-0.298-1.178-0.669c-0.428,0.442-0.861,0.774-1.299,0.996
		c-0.438,0.221-0.949,0.386-1.537,0.499c-0.883,0.175-1.689,0.201-2.422,0.077c-0.732-0.125-1.377-0.384-1.93-0.777
		c-0.553-0.395-0.998-0.924-1.334-1.593c-0.338-0.668-0.545-1.468-0.623-2.401c-0.027-0.388-0.021-0.772,0.018-1.152
		c0.037-0.38,0.09-0.754,0.156-1.121c0.078-0.405,0.209-0.845,0.391-1.32c0.184-0.474,0.381-0.889,0.592-1.243
		c0.758-1.297,1.799-2.31,3.127-3.037c0.23-0.126,0.549-0.257,0.955-0.392c0.404-0.137,0.822-0.234,1.25-0.293
		c0.428-0.06,0.846-0.067,1.252-0.025c0.408,0.042,0.729,0.178,0.961,0.409c0.189,0.183,0.332,0.349,0.428,0.494
		c0.094,0.144,0.158,0.304,0.195,0.477c0.035,0.172,0.064,0.358,0.088,0.561c0.023,0.201,0.059,0.45,0.105,0.745
		c0.078,0.487,0.148,0.962,0.215,1.424c0.062,0.462,0.141,0.927,0.234,1.394c0.023,0.156,0.057,0.361,0.098,0.612
		c0.039,0.253,0.09,0.517,0.15,0.792c0.062,0.275,0.127,0.537,0.193,0.785s0.137,0.445,0.213,0.594L724.611,45.467z M718.895,45.173
		c0.172-0.152,0.367-0.321,0.588-0.508s0.41-0.391,0.572-0.612c-0.303-0.897-0.541-1.804-0.715-2.722
		c-0.172-0.917-0.314-1.848-0.43-2.793c-0.762,0.265-1.412,0.715-1.951,1.354c-0.541,0.639-0.875,1.343-1.002,2.11
		c-0.057,0.312-0.096,0.63-0.115,0.955c-0.02,0.323,0.002,0.632,0.066,0.925c0.08,0.398,0.238,0.716,0.473,0.954
		c0.234,0.239,0.498,0.408,0.789,0.504s0.59,0.13,0.898,0.098C718.375,45.406,718.65,45.317,718.895,45.173z"/>
	<path fill="#FFFFFF" d="M738.416,42.311c0.375,0.458,0.547,0.894,0.514,1.309c-0.031,0.416-0.18,0.747-0.441,0.994
		c-0.266,0.246-0.613,0.382-1.047,0.406c-0.434,0.023-0.881-0.132-1.344-0.468c-0.371,0.361-0.77,0.66-1.193,0.897
		c-0.428,0.236-0.883,0.456-1.367,0.658c-0.756,0.298-1.51,0.405-2.262,0.32c-0.756-0.086-1.445-0.311-2.072-0.673
		c-0.629-0.364-1.17-0.853-1.625-1.469c-0.455-0.612-0.76-1.309-0.92-2.086c-0.189-0.86-0.258-1.706-0.201-2.534
		c0.055-0.829,0.23-1.605,0.525-2.33s0.73-1.374,1.307-1.947c0.578-0.571,1.295-1.025,2.152-1.357
		c0.504-0.187,1.021-0.323,1.553-0.408c0.531-0.084,1.064-0.123,1.6-0.119c-0.08-0.381-0.162-0.817-0.248-1.312
		c-0.088-0.494-0.17-0.976-0.244-1.445s-0.125-0.894-0.148-1.273c-0.025-0.379-0.023-0.651,0.004-0.816
		c0.072-0.332,0.221-0.601,0.445-0.806c0.227-0.205,0.479-0.334,0.754-0.388c0.277-0.053,0.562-0.026,0.855,0.078
		c0.293,0.105,0.541,0.293,0.746,0.563c0.047,0.082,0.104,0.157,0.17,0.227c0.064,0.07,0.104,0.148,0.117,0.235
		c0.379,2.276,0.74,4.526,1.086,6.755c0.346,2.227,0.699,4.479,1.061,6.757C738.277,42.173,738.352,42.25,738.416,42.311z
		 M734.562,41.452c0.025-0.057,0.084-0.12,0.17-0.188c0.088-0.066,0.125-0.144,0.111-0.231c-0.117-0.73-0.23-1.448-0.344-2.152
		c-0.111-0.704-0.234-1.419-0.367-2.147c-0.432-0.021-0.873-0.003-1.328,0.052c-0.457,0.054-0.889,0.168-1.297,0.339
		c-0.41,0.172-0.773,0.409-1.09,0.709c-0.318,0.3-0.547,0.692-0.684,1.178c-0.051,0.347-0.096,0.692-0.129,1.036
		c-0.035,0.345-0.031,0.675,0.01,0.988c0.041,0.314,0.129,0.617,0.264,0.907c0.135,0.291,0.33,0.56,0.584,0.804
		c0.08,0.058,0.174,0.115,0.281,0.168c0.105,0.056,0.312,0.147,0.617,0.277c0.652-0.051,1.256-0.208,1.811-0.475
		S734.189,42.029,734.562,41.452z"/>
	<path fill="#FFFFFF" d="M762.361,38.505c0.375,0.458,0.545,0.894,0.514,1.31c-0.031,0.415-0.18,0.746-0.443,0.993
		c-0.264,0.246-0.611,0.382-1.045,0.406s-0.881-0.132-1.344-0.468c-0.371,0.361-0.77,0.661-1.195,0.897
		c-0.426,0.237-0.881,0.457-1.367,0.659c-0.754,0.297-1.508,0.404-2.262,0.319c-0.754-0.086-1.443-0.311-2.072-0.673
		c-0.629-0.364-1.17-0.853-1.623-1.469c-0.455-0.612-0.762-1.309-0.92-2.086c-0.191-0.86-0.26-1.706-0.203-2.534
		c0.057-0.829,0.23-1.605,0.525-2.33s0.732-1.374,1.309-1.947c0.578-0.571,1.295-1.024,2.15-1.357
		c0.506-0.187,1.023-0.323,1.555-0.407c0.529-0.085,1.062-0.123,1.598-0.119c-0.078-0.381-0.16-0.817-0.248-1.312
		s-0.17-0.977-0.244-1.446s-0.123-0.894-0.148-1.273c-0.025-0.379-0.023-0.651,0.006-0.816c0.07-0.332,0.221-0.601,0.445-0.806
		s0.477-0.334,0.754-0.388c0.277-0.053,0.561-0.025,0.855,0.079c0.291,0.104,0.541,0.292,0.746,0.562
		c0.047,0.083,0.104,0.157,0.168,0.227c0.064,0.07,0.104,0.149,0.117,0.236c0.381,2.275,0.742,4.526,1.088,6.754
		c0.344,2.227,0.697,4.479,1.061,6.757C762.223,38.367,762.297,38.444,762.361,38.505z M758.506,37.646
		c0.027-0.057,0.084-0.12,0.172-0.187c0.086-0.067,0.125-0.145,0.111-0.232c-0.117-0.73-0.23-1.448-0.344-2.152
		c-0.111-0.704-0.234-1.419-0.367-2.147c-0.432-0.021-0.875-0.003-1.33,0.052c-0.455,0.054-0.887,0.168-1.295,0.339
		c-0.41,0.172-0.775,0.409-1.092,0.709c-0.318,0.3-0.545,0.692-0.682,1.178c-0.053,0.347-0.096,0.693-0.131,1.036
		c-0.033,0.345-0.031,0.675,0.012,0.988c0.039,0.315,0.129,0.617,0.264,0.907c0.135,0.291,0.33,0.56,0.582,0.804
		c0.08,0.059,0.176,0.115,0.281,0.168c0.107,0.056,0.312,0.148,0.619,0.277c0.65-0.05,1.256-0.208,1.811-0.475
		S758.135,38.224,758.506,37.646z"/>
	<path fill="#FFFFFF" d="M776.672,37.193c0.219,0.482,0.258,0.904,0.121,1.264c-0.141,0.361-0.369,0.625-0.691,0.793
		c-0.32,0.166-0.691,0.212-1.113,0.136c-0.424-0.075-0.814-0.297-1.178-0.668c-0.428,0.441-0.861,0.773-1.299,0.995
		c-0.438,0.221-0.949,0.387-1.537,0.499c-0.883,0.176-1.689,0.201-2.422,0.077s-1.377-0.384-1.93-0.777s-0.998-0.924-1.334-1.592
		c-0.338-0.668-0.545-1.469-0.623-2.402c-0.027-0.388-0.021-0.771,0.018-1.152c0.037-0.379,0.09-0.754,0.156-1.121
		c0.078-0.404,0.209-0.844,0.391-1.319c0.184-0.474,0.381-0.889,0.592-1.244c0.756-1.296,1.799-2.309,3.127-3.037
		c0.23-0.125,0.549-0.256,0.955-0.392c0.404-0.137,0.822-0.233,1.25-0.293c0.428-0.059,0.846-0.067,1.252-0.024
		c0.408,0.041,0.729,0.178,0.961,0.409c0.189,0.183,0.332,0.349,0.428,0.493c0.094,0.145,0.158,0.305,0.195,0.477
		c0.035,0.173,0.064,0.359,0.088,0.561c0.023,0.202,0.059,0.45,0.105,0.745c0.078,0.487,0.148,0.962,0.215,1.424
		c0.062,0.463,0.141,0.927,0.234,1.394c0.023,0.156,0.057,0.361,0.098,0.612c0.039,0.253,0.09,0.518,0.15,0.792
		c0.062,0.275,0.127,0.538,0.193,0.785c0.066,0.248,0.137,0.446,0.213,0.594L776.672,37.193z M770.955,36.898
		c0.172-0.152,0.367-0.321,0.588-0.508c0.221-0.186,0.41-0.39,0.572-0.612c-0.303-0.896-0.541-1.803-0.715-2.721
		c-0.172-0.918-0.314-1.849-0.43-2.793c-0.762,0.264-1.412,0.715-1.951,1.354c-0.541,0.638-0.875,1.342-1.002,2.11
		c-0.057,0.312-0.096,0.63-0.115,0.954s0.002,0.633,0.066,0.926c0.08,0.397,0.238,0.715,0.473,0.954s0.498,0.407,0.789,0.504
		c0.291,0.096,0.59,0.129,0.898,0.097C770.436,37.133,770.711,37.044,770.955,36.898z"/>
	<path fill="#FFFFFF" d="M777.639,29.311c-0.363-0.031-0.686-0.131-0.971-0.299c-0.285-0.169-0.498-0.385-0.637-0.648
		c-0.141-0.263-0.186-0.549-0.137-0.859c0.047-0.312,0.219-0.615,0.51-0.911c0.244-0.253,0.541-0.407,0.891-0.462
		c0.346-0.056,0.686-0.109,1.016-0.162c-0.02-0.122-0.07-0.385-0.152-0.791c-0.082-0.405-0.158-0.854-0.227-1.342
		c-0.068-0.487-0.111-0.958-0.131-1.41c-0.018-0.451,0.029-0.774,0.141-0.972c0.27-0.541,0.664-0.84,1.182-0.896
		c0.516-0.055,0.977,0.125,1.383,0.542c0.082,0.076,0.166,0.17,0.246,0.282c0.078,0.111,0.129,0.22,0.145,0.324
		c0.115,0.624,0.221,1.249,0.311,1.876c0.092,0.628,0.188,1.254,0.287,1.88l2.059-0.327c0.314-0.05,0.6,0.012,0.859,0.184
		c0.26,0.174,0.459,0.392,0.6,0.655c0.139,0.262,0.211,0.545,0.215,0.847c0.002,0.304-0.094,0.568-0.289,0.795
		c-0.348,0.395-0.785,0.644-1.312,0.743c-0.527,0.102-1.07,0.197-1.625,0.285c0.152,0.957,0.299,1.914,0.441,2.872
		s0.301,1.914,0.471,2.866c0.066,0.418,0.154,0.841,0.268,1.269c0.111,0.428,0.148,0.851,0.107,1.267
		c-0.039,0.327-0.146,0.599-0.326,0.813c-0.18,0.216-0.396,0.365-0.648,0.451c-0.256,0.084-0.527,0.111-0.818,0.077
		c-0.291-0.035-0.574-0.137-0.852-0.308c-0.141-0.102-0.266-0.296-0.373-0.582c-0.107-0.285-0.197-0.593-0.268-0.92
		c-0.078-0.38-0.143-0.788-0.193-1.226c-0.057-0.349-0.127-0.8-0.217-1.357c-0.088-0.556-0.184-1.133-0.287-1.731
		c-0.104-0.6-0.199-1.167-0.285-1.707c-0.086-0.538-0.152-0.965-0.203-1.278L777.639,29.311z"/>
	<path fill="#FFFFFF" d="M797.668,33.856c0.219,0.482,0.26,0.904,0.121,1.264c-0.139,0.36-0.367,0.624-0.689,0.793
		c-0.32,0.166-0.693,0.212-1.115,0.136c-0.422-0.075-0.814-0.297-1.176-0.668c-0.428,0.441-0.861,0.773-1.299,0.995
		c-0.438,0.221-0.951,0.387-1.539,0.499c-0.883,0.175-1.688,0.201-2.42,0.077c-0.732-0.125-1.377-0.384-1.93-0.777
		s-0.998-0.924-1.336-1.592s-0.545-1.469-0.621-2.402c-0.027-0.388-0.021-0.771,0.016-1.152c0.039-0.379,0.09-0.754,0.156-1.121
		c0.078-0.405,0.209-0.844,0.393-1.319c0.182-0.474,0.381-0.889,0.592-1.244c0.756-1.297,1.799-2.31,3.127-3.037
		c0.229-0.125,0.547-0.256,0.955-0.392c0.404-0.137,0.82-0.233,1.248-0.293c0.428-0.059,0.846-0.067,1.254-0.024
		c0.408,0.041,0.729,0.178,0.959,0.408c0.191,0.184,0.334,0.35,0.428,0.494s0.16,0.305,0.197,0.477
		c0.035,0.173,0.064,0.359,0.088,0.561c0.023,0.202,0.059,0.45,0.105,0.745c0.078,0.487,0.148,0.962,0.213,1.424
		c0.064,0.463,0.143,0.927,0.234,1.394c0.025,0.156,0.059,0.361,0.098,0.612c0.041,0.253,0.092,0.518,0.152,0.792
		c0.061,0.275,0.127,0.538,0.193,0.785c0.064,0.248,0.137,0.446,0.213,0.594L797.668,33.856z M791.953,33.562
		c0.172-0.152,0.367-0.321,0.588-0.508c0.219-0.186,0.408-0.391,0.57-0.612c-0.303-0.896-0.541-1.804-0.713-2.721
		c-0.172-0.918-0.316-1.849-0.43-2.793c-0.762,0.264-1.412,0.715-1.953,1.353c-0.539,0.639-0.873,1.343-1,2.111
		c-0.057,0.312-0.096,0.63-0.115,0.954c-0.021,0.323,0.002,0.633,0.066,0.926c0.08,0.397,0.238,0.715,0.473,0.954
		s0.496,0.407,0.787,0.503c0.293,0.097,0.592,0.13,0.9,0.098C791.432,33.796,791.707,33.707,791.953,33.562z"/>
</g>
</svg>
